<svg width="10" height="12" viewBox="0 0 10 12" fill="none" xmlns="http://www.w3.org/2000/svg">
    <path d="M2.60347 11.8755L8.83897 6.38354C8.89086 6.33379 8.93216 6.27406 8.96036 6.20794C8.98857 6.14182 9.00311 6.07067 9.00311 5.99879C9.00311 5.9269 8.98857 5.85576 8.96036 5.78964C8.93216 5.72352 8.89086 5.66378 8.83897 5.61404L2.60347 0.124537C2.55401 0.0806319 2.49622 0.0471181 2.43355 0.0259869C2.37087 0.00485572 2.30459 -0.00346165 2.23864 0.00152901C2.17269 0.00651968 2.10841 0.0247166 2.04963 0.0550384C1.99085 0.0853602 1.93877 0.127188 1.89647 0.178037L1.11797 1.10304C1.03101 1.20619 0.988091 1.33939 0.998474 1.4739C1.00886 1.60842 1.07171 1.73346 1.17347 1.82204L5.89997 5.90454C5.91361 5.91627 5.92455 5.93081 5.93205 5.94716C5.93956 5.96352 5.94344 5.9813 5.94344 5.99929C5.94344 6.01728 5.93956 6.03506 5.93205 6.05141C5.92455 6.06776 5.91361 6.0823 5.89997 6.09404L1.17497 10.178C1.12431 10.222 1.08282 10.2756 1.05288 10.3357C1.02293 10.3957 1.00513 10.4611 1.00047 10.528C0.994537 10.5946 1.00201 10.6617 1.02245 10.7253C1.04289 10.789 1.07588 10.8479 1.11947 10.8985L1.89847 11.824C1.94085 11.8748 1.99296 11.9165 2.05174 11.9467C2.11052 11.977 2.17476 11.9951 2.24067 12.0001C2.30658 12.0051 2.37283 11.9968 2.43549 11.9758C2.49814 11.9547 2.55594 11.9213 2.60547 11.8775L2.60347 11.8755Z" fill="#C1C2C5"/>
</svg>
