<svg width="12" height="10" viewBox="0 0 12 10" fill="none" xmlns="http://www.w3.org/2000/svg">
<path d="M0.124494 2.60347L5.61649 8.83897C5.66624 8.89086 5.72597 8.93216 5.79209 8.96036C5.85821 8.98857 5.92936 9.00311 6.00124 9.00311C6.07313 9.00311 6.14427 8.98857 6.21039 8.96036C6.27651 8.93216 6.33625 8.89086 6.38599 8.83897L11.8755 2.60347C11.9194 2.55401 11.9529 2.49622 11.974 2.43355C11.9952 2.37087 12.0035 2.30459 11.9985 2.23864C11.9935 2.17269 11.9753 2.10841 11.945 2.04963C11.9147 1.99085 11.8728 1.93877 11.822 1.89647L10.897 1.11797C10.7938 1.03101 10.6606 0.988091 10.5261 0.998474C10.3916 1.00886 10.2666 1.07171 10.178 1.17347L6.09549 5.89997C6.08376 5.91361 6.06922 5.92455 6.05287 5.93205C6.03651 5.93956 6.01873 5.94344 6.00074 5.94344C5.98275 5.94344 5.96497 5.93956 5.94862 5.93205C5.93227 5.92455 5.91773 5.91361 5.90599 5.89997L1.82199 1.17497C1.77799 1.12431 1.72442 1.08282 1.66437 1.05288C1.60431 1.02293 1.53894 1.00513 1.47199 1.00047C1.40542 0.994537 1.33833 1.00201 1.27469 1.02245C1.21105 1.04289 1.15216 1.07588 1.10149 1.11947L0.175993 1.89847C0.125263 1.94085 0.0835438 1.99296 0.0533018 2.05174C0.0230598 2.11052 0.00490761 2.17476 -8.01086e-05 2.24067C-0.00506783 2.30658 0.00321007 2.37283 0.0242634 2.43549C0.0453167 2.49814 0.0787182 2.55594 0.122494 2.60547L0.124494 2.60347Z" fill="#C1C2C5"/>
</svg>
