<svg width="10" height="12" viewBox="0 0 10 12" fill="none" xmlns="http://www.w3.org/2000/svg">
    <path d="M2.60359 11.8754L8.83909 6.38341C8.89099 6.33367 8.93228 6.27394 8.96049 6.20781C8.98869 6.14169 9.00323 6.07055 9.00323 5.99866C9.00323 5.92678 8.98869 5.85564 8.96049 5.78951C8.93228 5.72339 8.89099 5.66366 8.83909 5.61391L2.60359 0.124415C2.55413 0.0805099 2.49634 0.046996 2.43367 0.0258648C2.371 0.00473365 2.30471 -0.00358373 2.23876 0.00140694C2.17281 0.00639761 2.10853 0.0245945 2.04975 0.0549163C1.99097 0.0852381 1.93889 0.127066 1.89659 0.177915L1.11809 1.10291C1.03113 1.20606 0.988213 1.33927 0.998596 1.47378C1.00898 1.6083 1.07183 1.73333 1.17359 1.82191L5.90009 5.90441C5.91373 5.91615 5.92467 5.93069 5.93218 5.94704C5.93968 5.96339 5.94356 5.98117 5.94356 5.99916C5.94356 6.01716 5.93968 6.03493 5.93218 6.05129C5.92467 6.06764 5.91373 6.08218 5.90009 6.09391L1.17509 10.1779C1.12443 10.2219 1.08294 10.2755 1.053 10.3355C1.02306 10.3956 1.00525 10.461 1.00059 10.5279C0.994659 10.5945 1.00213 10.6616 1.02257 10.7252C1.04301 10.7889 1.076 10.8477 1.11959 10.8984L1.89859 11.8239C1.94097 11.8746 1.99309 11.9164 2.05186 11.9466C2.11064 11.9768 2.17488 11.995 2.24079 12C2.30671 12.005 2.37295 11.9967 2.43561 11.9756C2.49827 11.9546 2.55607 11.9212 2.60559 11.8774L2.60359 11.8754Z" fill="#3A42F1"/>
</svg>
