<svg width="80" height="80" viewBox="0 0 80 80" fill="none" xmlns="http://www.w3.org/2000/svg">
<path d="M40 80C29.3913 80 19.2172 75.7857 11.7157 68.2843C4.21427 60.7828 0 50.6087 0 40C0 29.3913 4.21427 19.2172 11.7157 11.7157C19.2172 4.21427 29.3913 0 40 0C50.6087 0 60.7828 4.21427 68.2843 11.7157C75.7857 19.2172 80 29.3913 80 40C80 50.6087 75.7857 60.7828 68.2843 68.2843C60.7828 75.7857 50.6087 80 40 80ZM40 72C48.4869 72 56.6263 68.6286 62.6274 62.6274C68.6286 56.6263 72 48.4869 72 40C72 31.5131 68.6286 23.3737 62.6274 17.3726C56.6263 11.3714 48.4869 8 40 8C31.5131 8 23.3737 11.3714 17.3726 17.3726C11.3714 23.3737 8 31.5131 8 40C8 48.4869 11.3714 56.6263 17.3726 62.6274C23.3737 68.6286 31.5131 72 40 72ZM30.8 37.2L36 42.36L49.2 29.16C49.9698 28.5097 50.9567 28.174 51.9633 28.2199C52.9699 28.2657 53.9222 28.6898 54.6296 29.4074C55.3371 30.125 55.7477 31.0831 55.7792 32.0903C55.8108 33.0975 55.4611 34.0795 54.8 34.84L38.8 50.84C38.0523 51.5729 37.047 51.9834 36 51.9834C34.953 51.9834 33.9477 51.5729 33.2 50.84L25.2 42.84C24.5389 42.0795 24.1892 41.0975 24.2208 40.0903C24.2523 39.0831 24.6629 38.125 25.3704 37.4074C26.0778 36.6898 27.0301 36.2657 28.0367 36.2199C29.0433 36.174 30.0302 36.5097 30.8 37.16V37.2Z" fill="#38B2AC"/>
</svg>
