<svg id="Capa_1" data-name="Capa 1" xmlns="http://www.w3.org/2000/svg" viewBox="0 0 38.1 23.8"><defs><style>.cls-1{fill:#31333e;}</style></defs><path class="cls-1" d="M36.7,1.4A5,5,0,0,0,33.2,0H4.7A4.76,4.76,0,0,0,1.3,1.4,4.67,4.67,0,0,0,0,4.8V19a4.78,4.78,0,0,0,4.8,4.8H33.3A4.78,4.78,0,0,0,38.1,19V4.8A4.76,4.76,0,0,0,36.7,1.4ZM37,19a4,4,0,0,1-1.1,2.7,3.86,3.86,0,0,1-2.7,1.1H4.7A4,4,0,0,1,2,21.7,3.86,3.86,0,0,1,.9,19V4.8A4,4,0,0,1,2,2.1,3.86,3.86,0,0,1,4.7,1H33.2a4,4,0,0,1,2.7,1.1A3.86,3.86,0,0,1,37,4.8Z"/><path class="cls-1" d="M18,9.4l-1.5,3.2L15,9.4H13v4.2L11.1,9.4H9.2L7,14.4H8.5L9,13.3h2.3l.5,1.1h2.5V10.8L16,14.4h1.2l1.5-3.3v3.3H20v-5H18ZM9.4,12.1l.7-1.7.7,1.7Z"/><path class="cls-1" d="M29.2,9.4l-1.4,1.5L26.4,9.4H20.9v5h5.4l1.5-1.6,1.4,1.6H31l-2.3-2.5L31,9.4ZM25,13.9v-.7H22.2v-.8H25V11.3H22.2v-.8H25V9.8l1.9,2.1Z"/></svg>