<svg width="10" height="17" viewBox="0 0 10 17" fill="none" xmlns="http://www.w3.org/2000/svg">
    <path d="M1.17216e-06 8.10579C-0.000268161 7.88433 0.0458802 7.66536 0.135367 7.4635C0.224853 7.26163 0.355619 7.08151 0.518937 6.93516L7.93838 0.292572C8.18425 0.0826234 8.50107 -0.0211012 8.8211 0.00357724C9.14113 0.0282557 9.43898 0.179378 9.65095 0.424631C9.86291 0.669884 9.97218 0.9898 9.95538 1.31597C9.93859 1.64215 9.79706 1.94869 9.56106 2.17005L3.07303 7.9785C3.05522 7.99439 3.04095 8.01396 3.03118 8.03591C3.0214 8.05786 3.01634 8.08169 3.01634 8.10579C3.01634 8.12989 3.0214 8.15371 3.03118 8.17566C3.04095 8.19761 3.05522 8.21719 3.07303 8.23307L9.56106 14.0415C9.68652 14.1487 9.78967 14.2802 9.86444 14.4285C9.93922 14.5768 9.98411 14.7388 9.99649 14.905C10.0089 15.0712 9.98847 15.2382 9.9365 15.3963C9.88453 15.5543 9.80204 15.7002 9.69388 15.8254C9.58571 15.9505 9.45406 16.0524 9.30665 16.125C9.15924 16.1977 8.99905 16.2396 8.8355 16.2483C8.67195 16.257 8.50834 16.2324 8.35427 16.1758C8.20021 16.1193 8.05881 16.032 7.93838 15.919L0.521598 9.27845C0.357876 9.13183 0.22669 8.95144 0.136759 8.74926C0.0468267 8.54707 0.000208258 8.32772 1.17216e-06 8.10579Z" fill="white"/>
</svg>