<svg width="10" height="12" viewBox="0 0 10 12" fill="none" xmlns="http://www.w3.org/2000/svg">
    <path d="M2.60335 11.8755L8.83885 6.38351C8.89074 6.33376 8.93203 6.27403 8.96024 6.20791C8.98845 6.14179 9.00299 6.07064 9.00299 5.99876C9.00299 5.92687 8.98845 5.85573 8.96024 5.78961C8.93203 5.72349 8.89074 5.66375 8.83885 5.61401L2.60335 0.124506C2.55388 0.0806014 2.4961 0.0470876 2.43342 0.0259564C2.37075 0.0048252 2.30447 -0.00349217 2.23852 0.0014985C2.17257 0.00648917 2.10829 0.024686 2.04951 0.0550078C1.99073 0.0853297 1.93865 0.127158 1.89635 0.178006L1.11785 1.10301C1.03089 1.20615 0.987969 1.33936 0.998352 1.47387C1.00874 1.60839 1.07159 1.73343 1.17335 1.82201L5.89985 5.90451C5.91349 5.91624 5.92443 5.93078 5.93193 5.94713C5.93943 5.96349 5.94332 5.98127 5.94332 5.99926C5.94332 6.01725 5.93943 6.03503 5.93193 6.05138C5.92443 6.06773 5.91349 6.08227 5.89985 6.09401L1.17485 10.178C1.12419 10.222 1.0827 10.2756 1.05275 10.3356C1.02281 10.3957 1.005 10.4611 1.00035 10.528C0.994415 10.5946 1.00189 10.6617 1.02233 10.7253C1.04277 10.7889 1.07576 10.8478 1.11935 10.8985L1.89835 11.824C1.94073 11.8747 1.99284 11.9165 2.05162 11.9467C2.1104 11.9769 2.17464 11.9951 2.24055 12.0001C2.30646 12.0051 2.37271 11.9968 2.43536 11.9757C2.49802 11.9547 2.55582 11.9213 2.60535 11.8775L2.60335 11.8755Z" fill="#4B596E"/>
</svg>