<svg width="22" height="20" viewBox="0 0 22 20" xmlns="http://www.w3.org/2000/svg">
    <path d="M20.047 3.75H1.3363C1.09999 3.75 0.873368 3.8378 0.706276 3.99408C0.539184 4.15036 0.445313 4.36232 0.445312 4.58333V15.4167C0.445313 15.6377 0.539184 15.8496 0.706276 16.0059C0.873368 16.1622 1.09999 16.25 1.3363 16.25H20.047C20.2833 16.25 20.5099 16.1622 20.677 16.0059C20.8441 15.8496 20.938 15.6377 20.938 15.4167V4.58333C20.938 4.36232 20.8441 4.15036 20.677 3.99408C20.5099 3.8378 20.2833 3.75 20.047 3.75ZM3.11827 7.08333C2.94205 7.08333 2.76979 7.03446 2.62326 6.94289C2.47674 6.85132 2.36254 6.72117 2.29511 6.5689C2.22767 6.41663 2.21002 6.24908 2.2444 6.08742C2.27878 5.92577 2.36364 5.77729 2.48825 5.66074C2.61285 5.5442 2.77161 5.46483 2.94445 5.43268C3.11728 5.40052 3.29643 5.41703 3.45923 5.4801C3.62204 5.54317 3.76119 5.64998 3.8591 5.78702C3.957 5.92407 4.00925 6.08518 4.00925 6.25C4.00925 6.47101 3.91538 6.68298 3.74829 6.83926C3.5812 6.99554 3.35457 7.08333 3.11827 7.08333ZM10.6916 12.5C10.163 12.5 9.6462 12.3534 9.20663 12.0787C8.76706 11.804 8.42446 11.4135 8.22216 10.9567C8.01985 10.4999 7.96691 9.99723 8.07005 9.51227C8.17319 9.02732 8.42776 8.58186 8.80158 8.23223C9.1754 7.8826 9.65167 7.6445 10.1702 7.54804C10.6887 7.45157 11.2261 7.50108 11.7145 7.6903C12.203 7.87952 12.6204 8.19995 12.9141 8.61107C13.2078 9.0222 13.3646 9.50555 13.3646 10C13.3646 10.663 13.083 11.2989 12.5817 11.7678C12.0804 12.2366 11.4006 12.5 10.6916 12.5ZM18.265 14.5833C18.0888 14.5833 17.9165 14.5345 17.77 14.4429C17.6235 14.3513 17.5093 14.2212 17.4419 14.0689C17.3744 13.9166 17.3568 13.7491 17.3912 13.5874C17.4255 13.4258 17.5104 13.2773 17.635 13.1607C17.7596 13.0442 17.9184 12.9648 18.0912 12.9327C18.264 12.9005 18.4432 12.917 18.606 12.9801C18.7688 13.0432 18.9079 13.15 19.0058 13.287C19.1038 13.4241 19.156 13.5852 19.156 13.75C19.156 13.971 19.0621 14.183 18.895 14.3393C18.728 14.4955 18.5013 14.5833 18.265 14.5833Z" />
</svg>
