<svg viewBox="0 0 20 14" xmlns="http://www.w3.org/2000/svg">
  <path d="M18.644.75H1.254c-.22 0-.43.088-.586.244a.836.836 0 00-.242.59v10.833c0 .22.087.433.242.589a.825.825 0 00.586.244h17.39c.22 0 .43-.088.585-.244a.836.836 0 00.243-.59V1.584a.836.836 0 00-.243-.589.826.826 0 00-.585-.244zM2.91 4.083a.824.824 0 01-.765-.514.838.838 0 01.18-.908.826.826 0 011.413.589.836.836 0 01-.242.59.825.825 0 01-.586.243zM9.95 9.5c-.492 0-.972-.147-1.38-.421a2.497 2.497 0 01-.915-1.122 2.515 2.515 0 01.538-2.725A2.48 2.48 0 0110.9 4.69c.455.19.843.51 1.115.921a2.511 2.511 0 01-.308 3.157 2.476 2.476 0 01-1.757.732zm7.039 2.083a.824.824 0 01-.765-.514.839.839 0 01.18-.908.826.826 0 011.413.589.836.836 0 01-.243.59.826.826 0 01-.585.243z" />
</svg>
