<svg width="20" height="20" viewBox="0 0 20 20" fill="none" xmlns="http://www.w3.org/2000/svg">
    <path stroke="black" stroke-width="1.5" stroke-linecap="round" stroke-linejoin="round" d="M1.25 3.75H18.75" />
    <path stroke="black" stroke-width="1.5" stroke-linecap="round" stroke-linejoin="round" d="M11.875 1.25H8.125C7.79348 1.25 7.47554 1.3817 7.24112 1.61612C7.0067 1.85054 6.875 2.16848 6.875 2.5V3.75H13.125V2.5C13.125 2.16848 12.9933 1.85054 12.7589 1.61612C12.5245 1.3817 12.2065 1.25 11.875 1.25Z" />
    <path stroke="black" stroke-width="1.5" stroke-linecap="round" stroke-linejoin="round" d="M8.125 14.375V8.125"/>
    <path stroke="black" stroke-width="1.5" stroke-linecap="round" stroke-linejoin="round" d="M11.875 14.375V8.125"/>
    <path stroke="black" stroke-width="1.5" stroke-linecap="round" stroke-linejoin="round" d="M15.7208 17.6033C15.6949 17.9159 15.5524 18.2073 15.3216 18.4197C15.0909 18.6321 14.7887 18.75 14.475 18.75H5.52583C5.21218 18.75 4.90998 18.6321 4.6792 18.4197C4.44842 18.2073 4.30593 17.9159 4.28 17.6033L3.125 3.75H16.875L15.7208 17.6033Z"/>
</svg>