
<svg width="16" height="17" viewBox="0 0 16 17" fill="none" xmlns="http://www.w3.org/2000/svg">
    <path d="M0.196887 14.3331C0.00885694 14.5212 -0.0967423 14.7763 -0.0966796 15.0423C-0.0966169 15.3082 0.00910255 15.5633 0.197222 15.7513C0.385341 15.9394 0.64045 16.045 0.906428 16.0449C1.17241 16.0448 1.42747 15.9391 1.6155 15.751L7.80737 9.55981C7.82289 9.54424 7.84134 9.53189 7.86164 9.52347C7.88195 9.51504 7.90372 9.51071 7.9257 9.51071C7.94768 9.51071 7.96945 9.51504 7.98975 9.52347C8.01006 9.53189 8.0285 9.54424 8.04403 9.55981L14.2359 15.7523C14.329 15.8455 14.4395 15.9194 14.5612 15.9698C14.6829 16.0202 14.8133 16.0462 14.945 16.0462C15.0767 16.0463 15.2071 16.0204 15.3288 15.97C15.4505 15.9196 15.561 15.8458 15.6542 15.7527C15.7473 15.6596 15.8212 15.549 15.8716 15.4274C15.9221 15.3057 15.948 15.1753 15.9481 15.0436C15.9481 14.9119 15.9222 14.7815 15.8718 14.6598C15.8215 14.5381 15.7476 14.4275 15.6545 14.3344L9.4633 8.14053C9.44774 8.12501 9.43539 8.10656 9.42697 8.08626C9.41854 8.06595 9.4142 8.04419 9.4142 8.0222C9.4142 8.00022 9.41854 7.97845 9.42697 7.95815C9.43539 7.93784 9.44774 7.9194 9.4633 7.90387L15.6558 1.71201C15.8439 1.52371 15.9494 1.26843 15.9492 1.00233C15.949 0.736226 15.8431 0.481096 15.6548 0.293066C15.4665 0.105036 15.2113 -0.00049298 14.9452 -0.000304925C14.6791 -0.00011687 14.4239 0.105773 14.2359 0.294069L8.04403 6.4846C8.0285 6.50016 8.01006 6.51251 7.98975 6.52094C7.96945 6.52936 7.94768 6.5337 7.9257 6.5337C7.90372 6.5337 7.88195 6.52936 7.86164 6.52094C7.84134 6.51251 7.82289 6.50016 7.80737 6.4846L1.6155 0.294069C1.52239 0.200922 1.41185 0.127025 1.29019 0.0765972C1.16853 0.0261696 1.03813 0.000198814 0.906428 0.000167774C0.64045 0.000105088 0.385341 0.105704 0.197222 0.293735C0.00910253 0.481765 -0.096617 0.736824 -0.0966797 1.0028C-0.0967423 1.26878 0.00885691 1.52389 0.196887 1.71201L6.38809 7.90387C6.40366 7.9194 6.41601 7.93784 6.42443 7.95815C6.43286 7.97845 6.43719 8.00022 6.43719 8.0222C6.43719 8.04419 6.43286 8.06595 6.42443 8.08626C6.41601 8.10656 6.40366 8.12501 6.38809 8.14053L0.196887 14.3331Z" fill="white"/>

</svg>
