<svg width="36" height="26" viewBox="0 0 36 26" fill="none" xmlns="http://www.w3.org/2000/svg">
<g clip-path="url(#clip0)">
  <path d="M1.125 14.6875H21.375C21.6734 14.6875 21.9595 14.569 22.1705 14.358C22.3815 14.147 22.5 13.8608 22.5 13.5625V1.66898C22.4711 1.37964 22.3855 1.09884 22.248 0.842624C22.1105 0.586408 21.9239 0.359806 21.6987 0.175775C21.4736 -0.00825512 21.2144 -0.146105 20.936 -0.22989C20.6575 -0.313676 20.3653 -0.341754 20.076 -0.31252H2.424C2.1347 -0.341754 1.84247 -0.313676 1.56403 -0.22989C1.28559 -0.146105 1.0264 -0.00825512 0.801268 0.175775C0.57614 0.359806 0.389496 0.586408 0.252008 0.842624C0.114521 1.09884 0.0288855 1.37964 0 1.66898L0 13.5625C0 13.8608 0.118526 14.147 0.329505 14.358C0.540483 14.569 0.826631 14.6875 1.125 14.6875ZM16.5 3.06248V11.3125C16.5 11.6108 16.3815 11.897 16.1705 12.108C15.9595 12.319 15.6734 12.4375 15.375 12.4375C15.0766 12.4375 14.7905 12.319 14.5795 12.108C14.3685 11.897 14.25 11.6108 14.25 11.3125V3.06248C14.25 2.76411 14.3685 2.47796 14.5795 2.26698C14.7905 2.05601 15.0766 1.93748 15.375 1.93748C15.6734 1.93748 15.9595 2.05601 16.1705 2.26698C16.3815 2.47796 16.5 2.76411 16.5 3.06248ZM7.5 3.06248V11.3125C7.5 11.6108 7.38147 11.897 7.1705 12.108C6.95952 12.319 6.67337 12.4375 6.375 12.4375C6.07663 12.4375 5.79048 12.319 5.5795 12.108C5.36853 11.897 5.25 11.6108 5.25 11.3125V3.06248C5.25 2.76411 5.36853 2.47796 5.5795 2.26698C5.79048 2.05601 6.07663 1.93748 6.375 1.93748C6.67337 1.93748 6.95952 2.05601 7.1705 2.26698C7.38147 2.47796 7.5 2.76411 7.5 3.06248Z" fill="#31333E"/>
  <path d="M36 11.3125C36 9.7212 35.3679 8.19508 34.2426 7.06986C33.1174 5.94464 31.5913 5.3125 30 5.3125H25.5C25.1022 5.3125 24.7206 5.47054 24.4393 5.75184C24.158 6.03314 24 6.41468 24 6.8125V15.8125C24 15.912 23.9605 16.0073 23.8902 16.0777C23.8198 16.148 23.7245 16.1875 23.625 16.1875H1.125C0.826631 16.1875 0.540483 16.306 0.329505 16.517C0.118526 16.728 0 17.0141 0 17.3125L0 21.8125C0 22.1109 0.118526 22.397 0.329505 22.608C0.540483 22.819 0.826631 22.9375 1.125 22.9375H2.6475C2.74717 22.937 2.8426 22.8971 2.913 22.8265C2.98332 22.7548 3.02265 22.6584 3.0225 22.558C3.0225 21.8715 3.15771 21.1918 3.42042 20.5575C3.68313 19.9233 4.06818 19.347 4.5536 18.8616C5.03902 18.3762 5.61529 17.9911 6.24952 17.7284C6.88375 17.4657 7.56351 17.3305 8.25 17.3305C8.93649 17.3305 9.61625 17.4657 10.2505 17.7284C10.8847 17.9911 11.461 18.3762 11.9464 18.8616C12.4318 19.347 12.8169 19.9233 13.0796 20.5575C13.3423 21.1918 13.4775 21.8715 13.4775 22.558C13.4773 22.6584 13.5167 22.7548 13.587 22.8265C13.6574 22.8971 13.7528 22.937 13.8525 22.9375H19.1475C19.2472 22.937 19.3426 22.8971 19.413 22.8265C19.4833 22.7548 19.5227 22.6584 19.5225 22.558C19.5107 21.8626 19.6375 21.1718 19.8955 20.5259C20.1535 19.88 20.5375 19.2919 21.0252 18.7959C21.5128 18.3 22.0943 17.9061 22.7357 17.6372C23.3772 17.3683 24.0657 17.2299 24.7612 17.2299C25.4568 17.2299 26.1453 17.3683 26.7868 17.6372C27.4282 17.9061 28.0097 18.3 28.4973 18.7959C28.985 19.2919 29.369 19.88 29.627 20.5259C29.885 21.1718 30.0118 21.8626 30 22.558C29.9996 22.6698 29.9931 22.7814 29.9805 22.8925C29.975 22.9449 29.9806 22.9978 29.9969 23.0479C30.0132 23.0979 30.0398 23.144 30.075 23.1832C30.1102 23.2224 30.1532 23.2537 30.2013 23.2752C30.2493 23.2967 30.3013 23.3079 30.354 23.308H33C33.7957 23.308 34.5587 22.9919 35.1213 22.4293C35.6839 21.8667 36 21.1037 36 20.308V11.3125ZM33 11.3125V12.4105C32.9998 12.4602 32.9898 12.5094 32.9705 12.5552C32.9512 12.601 32.923 12.6425 32.8876 12.6774C32.8522 12.7122 32.8102 12.7397 32.7641 12.7583C32.718 12.7768 32.6687 12.7861 32.619 12.7855L28.869 12.7285C28.7706 12.7269 28.6767 12.6867 28.6077 12.6166C28.5387 12.5464 28.5 12.4519 28.5 12.3535V8.6875C28.5 8.58804 28.5395 8.49266 28.6098 8.42234C28.6802 8.35201 28.7755 8.3125 28.875 8.3125H30C30.7956 8.3125 31.5587 8.62857 32.1213 9.19118C32.6839 9.75379 33 10.5169 33 11.3125Z" fill="#31333E"/>
  <path d="M24.75 26.3125C26.8211 26.3125 28.5 24.6336 28.5 22.5625C28.5 20.4914 26.8211 18.8125 24.75 18.8125C22.6789 18.8125 21 20.4914 21 22.5625C21 24.6336 22.6789 26.3125 24.75 26.3125Z" fill="#31333E"/>
  <path d="M8.25 26.3125C10.3211 26.3125 12 24.6336 12 22.5625C12 20.4914 10.3211 18.8125 8.25 18.8125C6.17893 18.8125 4.5 20.4914 4.5 22.5625C4.5 24.6336 6.17893 26.3125 8.25 26.3125Z" fill="#31333E"/>
</g>
<defs>
  <clipPath id="clip0">
    <rect width="36" height="26" fill="white"/>
  </clipPath>
  </defs>
</svg>
