<svg width="80" height="80" viewBox="0 0 80 80" xmlns="http://www.w3.org/2000/svg">
    <g clip-path="url(#clip0)">
        <path d="M80.0002 8.3333C80.0002 7.78612 79.8924 7.2443 79.683 6.73878C79.4736 6.23326 79.1667 5.77393 78.7798 5.38702C78.3929 5.00011 77.9336 4.69319 77.428 4.4838C76.9225 4.2744 76.3807 4.16663 75.8335 4.16663H68.1369C66.7131 4.16512 65.3377 4.68351 64.2691 5.62444C63.2005 6.56537 62.5122 7.86408 62.3335 9.27663L61.3969 16.77C61.3717 16.9715 61.2738 17.1569 61.1216 17.2913C60.9694 17.4257 60.7733 17.4999 60.5702 17.5H9.17354C7.73413 17.4994 6.31483 17.838 5.03066 18.4882C3.74649 19.1385 2.63356 20.0821 1.78207 21.2426C0.930567 22.4032 0.364448 23.748 0.129581 25.1681C-0.105286 26.5882 -0.00229459 28.0437 0.43021 29.4166L7.30021 51.06C7.87461 52.9302 9.03543 54.566 10.6111 55.7257C12.1868 56.8854 14.0938 57.5075 16.0502 57.5H57.1402C58.9341 57.5083 60.671 56.87 62.0325 55.7019C63.394 54.5339 64.289 52.9143 64.5535 51.14L66.9402 35.62C67.0234 35.0791 66.9992 34.5272 66.8691 33.9957C66.739 33.4642 66.5054 32.9636 66.1818 32.5224C65.8582 32.0811 65.4508 31.708 64.983 31.4241C64.5152 31.1403 63.996 30.9515 63.4552 30.8683C62.9144 30.7851 62.3625 30.8093 61.831 30.9394C61.2995 31.0695 60.7988 31.3031 60.3576 31.6267C59.9164 31.9503 59.5432 32.3577 59.2594 32.8255C58.9756 33.2933 58.7867 33.8125 58.7035 34.3533L56.5335 48.46C56.5039 48.6569 56.4045 48.8367 56.2533 48.9665C56.1022 49.0962 55.9094 49.1672 55.7102 49.1666H16.0502C15.8689 49.1671 15.6924 49.1085 15.5474 48.9996C15.4024 48.8908 15.2969 48.7376 15.2469 48.5633L8.37688 26.8966C8.33885 26.7721 8.33054 26.6404 8.35262 26.512C8.3747 26.3837 8.42655 26.2623 8.504 26.1576C8.58146 26.0529 8.68237 25.9679 8.79865 25.9092C8.91492 25.8506 9.04332 25.82 9.17354 25.82H62.0535C63.8799 25.8178 65.6429 25.1508 67.0133 23.9436C68.3838 22.7363 69.2678 21.0714 69.5002 19.26L70.2535 13.23C70.2787 13.0285 70.3766 12.8431 70.5288 12.7087C70.6811 12.5742 70.8771 12.5 71.0802 12.5H75.8335C76.3807 12.5 76.9225 12.3922 77.428 12.1828C77.9336 11.9734 78.3929 11.6665 78.7798 11.2796C79.1667 10.8927 79.4736 10.4333 79.683 9.92781C79.8924 9.42229 80.0002 8.88047 80.0002 8.3333Z" />
        <path d="M22.5068 75.8334C26.6489 75.8334 30.0068 72.4755 30.0068 68.3334C30.0068 64.1912 26.6489 60.8334 22.5068 60.8334C18.3646 60.8334 15.0068 64.1912 15.0068 68.3334C15.0068 72.4755 18.3646 75.8334 22.5068 75.8334Z" />
        <path d="M55 75.8334C59.1421 75.8334 62.5 72.4755 62.5 68.3334C62.5 64.1912 59.1421 60.8334 55 60.8334C50.8579 60.8334 47.5 64.1912 47.5 68.3334C47.5 72.4755 50.8579 75.8334 55 75.8334Z" />
    </g>
    <defs>
        <clipPath id="clip0">
            <rect width="80" height="80" />
        </clipPath>
    </defs>
</svg>