<svg width="16" height="16" viewBox="0 0 16 16" fill="none" xmlns="http://www.w3.org/2000/svg">
    <path d="M10.1258 5.12021L10.364 5.57942L10.8764 5.65028L14.5551 6.15897C14.5556 6.15904 14.556 6.15911 14.5565 6.15917C14.6617 6.17437 14.7562 6.21682 14.8304 6.27701C14.9039 6.33667 14.9536 6.41032 14.9797 6.4866C15.0043 6.5615 15.0065 6.6401 14.9867 6.71543L15.9538 6.96982L14.9867 6.71543C14.9666 6.79173 14.9232 6.86672 14.8555 6.92944L14.8542 6.93061L12.1948 9.40069L11.7939 9.77305L11.8914 10.3115L12.5231 13.802C12.5368 13.8785 12.5284 13.9577 12.4968 14.0323C12.4651 14.1074 12.4094 14.1785 12.3304 14.2337C12.2511 14.2891 12.1531 14.3247 12.0473 14.3322C11.9414 14.3397 11.8372 14.3183 11.7474 14.2733L11.7473 14.2732L8.44793 12.618L7.99985 12.3932L7.55164 12.6178L4.25536 14.269L4.2549 14.2692C4.16518 14.3142 4.06109 14.3356 3.95529 14.3281C3.84953 14.3206 3.7516 14.2851 3.6723 14.2298C3.59332 14.1747 3.53767 14.1037 3.50586 14.0287C3.4743 13.9543 3.46573 13.8753 3.47923 13.7991C3.47926 13.7989 3.47929 13.7987 3.47932 13.7986L4.10783 10.3097L4.20476 9.7716L3.80407 9.39958L1.1447 6.93048L1.1447 6.93048L1.14254 6.92849C1.07509 6.86622 1.03221 6.79169 1.01265 6.71603C0.993217 6.64083 0.996123 6.56234 1.02172 6.48772C1.04822 6.4108 1.09849 6.33659 1.17278 6.27661C1.24704 6.21667 1.34138 6.17437 1.44637 6.15907L5.12494 5.64927L5.63789 5.57818L5.87585 5.11824L7.52151 1.93732C7.52162 1.93711 7.52173 1.93689 7.52184 1.93668C7.56018 1.86325 7.62224 1.79553 7.70632 1.74565C7.79094 1.69545 7.89208 1.66699 7.99801 1.66699C8.10393 1.66699 8.20507 1.69545 8.2897 1.74565C8.3738 1.79555 8.43588 1.8633 8.47421 1.93676C8.47431 1.93695 8.47441 1.93713 8.4745 1.93732L10.1258 5.12021Z" stroke="#97A5BA" stroke-width="2"/>
</svg>