<svg width="16" height="16" viewBox="0 0 16 16" fill="none" xmlns="http://www.w3.org/2000/svg">
    <path d="M15.9279 6.16881C15.8401 5.90866 15.6782 5.67719 15.4605 5.50051C15.2428 5.32384 14.9779 5.20898 14.6957 5.16891L11.0134 4.65971L9.36172 1.47597C9.23535 1.23295 9.04079 1.0285 8.7999 0.885599C8.559 0.742695 8.28131 0.666992 7.99801 0.666992C7.7147 0.666992 7.43701 0.742695 7.19612 0.885599C6.95522 1.0285 6.76066 1.23295 6.63429 1.47597L4.98767 4.65873L1.30639 5.16891C1.02554 5.20908 0.761824 5.32319 0.544632 5.49852C0.32744 5.67386 0.165294 5.90355 0.0762549 6.162C-0.0131634 6.42187 -0.0241814 6.70066 0.0444693 6.96627C0.11312 7.23188 0.258647 7.47351 0.464292 7.66332L3.12367 10.1324L2.49489 13.6228C2.44699 13.8912 2.47828 14.167 2.58525 14.4192C2.69221 14.6713 2.87058 14.8898 3.10023 15.05C3.32988 15.2102 3.60166 15.3056 3.88491 15.3256C4.16816 15.3456 4.4516 15.2893 4.70324 15.1631L7.99953 13.5118L11.2989 15.167C11.5507 15.2934 11.8343 15.3497 12.1178 15.3297C12.4013 15.3097 12.6733 15.214 12.903 15.0536C13.1327 14.8931 13.3111 14.6743 13.4178 14.4218C13.5246 14.1693 13.5556 13.8933 13.5072 13.6248L12.8754 10.1334L15.5348 7.66332C15.7392 7.47412 15.8843 7.23391 15.9538 6.96982C16.0232 6.70573 16.0143 6.42828 15.9279 6.16881Z" fill="#FFCE18"/>
</svg>
