<svg id="Capa_1" data-name="Capa 1" xmlns="http://www.w3.org/2000/svg" viewBox="0 0 38.1 23.8"><path class="cls-1" d="M36.7,1.4A5.18,5.18,0,0,0,33.2,0H4.8A4.78,4.78,0,0,0,0,4.8V19a4.78,4.78,0,0,0,4.8,4.8H33.3A4.78,4.78,0,0,0,38.1,19V4.8A4.76,4.76,0,0,0,36.7,1.4ZM37,19a4,4,0,0,1-1.1,2.7,3.86,3.86,0,0,1-2.7,1.1H4.8a4,4,0,0,1-2.7-1.1A3.86,3.86,0,0,1,1,19V4.8A4,4,0,0,1,2.1,2.1,3.86,3.86,0,0,1,4.8,1H33.3A4,4,0,0,1,36,2.1a4.27,4.27,0,0,1,1,2.7Z"/><path class="cls-1" d="M18.1,8a4.07,4.07,0,0,0-2.4-.8,5.34,5.34,0,0,0-2.5.5,5.19,5.19,0,0,0-1.9,1.7,5.2,5.2,0,0,0-.7,2.5,4.59,4.59,0,0,0,2.6,4.2,4.34,4.34,0,0,0,2.5.5,4.07,4.07,0,0,0,2.4-.8,5.78,5.78,0,0,1-1.5-3.9A6.32,6.32,0,0,1,18.1,8Z"/><circle class="cls-1" cx="22.6" cy="11.9" r="4.8" transform="translate(-1.61 3.77) rotate(-9.22)"/></svg>
