<svg width="24" height="24" viewBox="0 0 24 24" fill="none" xmlns="http://www.w3.org/2000/svg">
    <path d="M21 0H3C2.60218 0 2.22064 0.158035 1.93934 0.43934C1.65804 0.720644 1.5 1.10218 1.5 1.5V22.5C1.5 22.8978 1.65804 23.2794 1.93934 23.5607C2.22064 23.842 2.60218 24 3 24H21C21.3978 24 21.7794 23.842 22.0607 23.5607C22.342 23.2794 22.5 22.8978 22.5 22.5V1.5C22.5 1.10218 22.342 0.720644 22.0607 0.43934C21.7794 0.158035 21.3978 0 21 0V0ZM19 4V20C19 20.1326 18.9473 20.2598 18.8536 20.3536C18.7598 20.4473 18.6326 20.5 18.5 20.5H5.5C5.36739 20.5 5.24021 20.4473 5.14645 20.3536C5.05268 20.2598 5 20.1326 5 20V4C5 3.86739 5.05268 3.74021 5.14645 3.64645C5.24021 3.55268 5.36739 3.5 5.5 3.5H18.5C18.6326 3.5 18.7598 3.55268 18.8536 3.64645C18.9473 3.74021 19 3.86739 19 4Z" fill="black"/>
    <path d="M12 13C13.6569 13 15 11.6569 15 10C15 8.34315 13.6569 7 12 7C10.3431 7 9 8.34315 9 10C9 11.6569 10.3431 13 12 13Z" fill="black"/>
    <path d="M11.9998 14C11.0034 13.9994 10.024 14.258 9.15791 14.7505C8.29178 15.243 7.56871 15.9524 7.05977 16.809C7.0181 16.8787 6.99609 16.9583 6.99609 17.0395C6.99609 17.1207 7.0181 17.2003 7.05977 17.27C7.10353 17.3406 7.16465 17.3988 7.2373 17.4391C7.30995 17.4794 7.39171 17.5003 7.47477 17.5H16.5128C16.5957 17.5004 16.6774 17.4796 16.7501 17.4395C16.8227 17.3994 16.8839 17.3414 16.9278 17.271C16.97 17.2015 16.9923 17.1218 16.9923 17.0405C16.9923 16.9592 16.97 16.8795 16.9278 16.81C16.421 15.9541 15.7001 15.2449 14.836 14.7522C13.9719 14.2595 12.9945 14.0003 11.9998 14Z" fill="black"/>
</svg>