<svg viewBox="0 0 20 20" fill="none" xmlns="http://www.w3.org/2000/svg">
  <path d="M13.592 6.893a.208.208 0 00.088-.303.208.208 0 00-.088-.076l-8.08-3.707a.412.412 0 00-.336 0l-3.161 1.38a.207.207 0 00-.126.192.21.21 0 00.126.191l8.521 3.574a.412.412 0 00.331-.005l2.725-1.246zM18.634 4.583a.208.208 0 00.09-.303.208.208 0 00-.09-.077l-8-3.497a.824.824 0 00-.663 0L7.304 1.872a.207.207 0 00-.123.19.21.21 0 00.123.191l8.033 3.685a.412.412 0 00.343 0l2.954-1.355zM1.065 5.525a.206.206 0 00-.262.094.21.21 0 00-.024.098v9.289a.837.837 0 00.51.769l8.516 3.572a.206.206 0 00.262-.094.208.208 0 00.024-.098V9.45a.21.21 0 00-.127-.193L1.065 5.525zM11.337 19.12a.21.21 0 00.095.174.206.206 0 00.197.016l7.71-3.527a.83.83 0 00.486-.758V5.738a.21.21 0 00-.095-.175.206.206 0 00-.198-.015l-8.07 3.694a.206.206 0 00-.123.189l-.002 9.689z" fill="#31333E"/>
</svg>
