<svg width="22" height="20" viewBox="0 0 22 20" xmlns="http://www.w3.org/2000/svg">
    <path d="M14.2316 6.89247C14.2704 6.8759 14.3034 6.84922 14.3265 6.8156C14.3497 6.78198 14.362 6.74286 14.362 6.70289C14.362 6.66292 14.3497 6.62379 14.3265 6.59018C14.3034 6.55656 14.2704 6.52988 14.2316 6.5133L5.53822 2.80664C5.48127 2.78298 5.41966 2.77075 5.35735 2.77075C5.29504 2.77075 5.23342 2.78298 5.17648 2.80664L1.77558 4.18664C1.7354 4.20265 1.70114 4.22935 1.67706 4.26343C1.65298 4.29751 1.64014 4.33746 1.64014 4.3783C1.64014 4.41915 1.65298 4.4591 1.67706 4.49318C1.70114 4.52726 1.7354 4.55396 1.77558 4.56997L10.9438 8.14331C11.0004 8.16546 11.0613 8.17645 11.1226 8.17559C11.1839 8.17473 11.2444 8.16204 11.3002 8.1383L14.2316 6.89247Z" />
    <path d="M19.6568 4.5833C19.6959 4.56684 19.7291 4.54014 19.7524 4.50644C19.7757 4.47273 19.7881 4.43344 19.7881 4.3933C19.7881 4.35316 19.7757 4.31387 19.7524 4.28017C19.7291 4.24646 19.6959 4.21977 19.6568 4.2033L11.0481 0.705801C10.9356 0.659915 10.8143 0.63623 10.6917 0.63623C10.569 0.63623 10.4477 0.659915 10.3353 0.705801L7.4663 1.87247C7.4269 1.88882 7.39342 1.91552 7.36993 1.94932C7.34643 1.98312 7.33392 2.02257 7.33392 2.06288C7.33392 2.1032 7.34643 2.14265 7.36993 2.17645C7.39342 2.21025 7.4269 2.23694 7.4663 2.2533L16.1089 5.9383C16.1668 5.96294 16.2297 5.97569 16.2933 5.97569C16.3569 5.97569 16.4198 5.96294 16.4777 5.9383L19.6568 4.5833Z" />
    <path d="M0.753594 5.52501C0.719735 5.51184 0.682923 5.50669 0.646426 5.51002C0.609929 5.51335 0.574876 5.52506 0.544378 5.5441C0.51388 5.56314 0.488881 5.58894 0.471599 5.61919C0.454317 5.64944 0.445288 5.68321 0.445313 5.71751V15.0058C0.445298 15.1703 0.497321 15.3311 0.59483 15.468C0.692338 15.6049 0.830972 15.7117 0.993269 15.775L10.1571 19.3475C10.1909 19.3607 10.2277 19.3658 10.2642 19.3625C10.3007 19.3592 10.3358 19.3475 10.3663 19.3284C10.3968 19.3094 10.4218 19.2836 10.439 19.2533C10.4563 19.2231 10.4654 19.1893 10.4653 19.155V9.45001C10.4652 9.40885 10.4522 9.36864 10.4278 9.3344C10.4034 9.30016 10.3687 9.27341 10.3281 9.25751L0.753594 5.52501Z" />
    <path d="M11.8054 19.12C11.8056 19.1547 11.815 19.1889 11.8329 19.2194C11.8507 19.2498 11.8764 19.2757 11.9077 19.2945C11.9389 19.3134 11.9746 19.3247 12.0117 19.3274C12.0487 19.3301 12.0859 19.3241 12.1199 19.31L20.4158 15.7833C20.5715 15.7171 20.7035 15.6104 20.7961 15.4759C20.8887 15.3414 20.9379 15.1849 20.938 15.025V5.73829C20.938 5.70345 20.9287 5.66916 20.9109 5.63856C20.8931 5.60796 20.8674 5.58202 20.8361 5.56311C20.8048 5.54421 20.7689 5.53295 20.7318 5.53036C20.6946 5.52777 20.6574 5.53394 20.6234 5.54829L11.939 9.24162C11.8999 9.25791 11.8668 9.28446 11.8435 9.31804C11.8203 9.35162 11.8079 9.39078 11.808 9.43079L11.8054 19.12Z" />
</svg>
