<svg data-name="Layer 1" xmlns="http://www.w3.org/2000/svg" viewBox="0 0 38 38"><rect y="7.13" width="38" height="23.75" rx="4.75" ry="4.75"/><path d="M10.42 16a1.91 1.91 0 00-1.5-.53H6.85a.29.29 0 00-.28.24L5.73 21a.17.17 0 00.17.2h1a.29.29 0 00.27-.2l.23-1.44a.29.29 0 01.28-.24h.65a2.12 2.12 0 002.35-2 1.61 1.61 0 00-.26-1.32zm-1.27 1.39c-.11.75-.68.75-1.23.75h-.3l.22-1.39a.17.17 0 01.16-.16h.14c.37 0 .72 0 .91.21a.7.7 0 01.1.59zm5.93 0h-1a.17.17 0 00-.17.15v.28l-.07-.1a1.4 1.4 0 00-1.17-.42 2.28 2.28 0 00-2.21 2 1.89 1.89 0 00.37 1.53 1.54 1.54 0 001.25.51 1.89 1.89 0 001.37-.57v.28a.17.17 0 00.17.2h.89a.29.29 0 00.28-.24l.53-3.41a.17.17 0 00-.23-.24zm-1.37 1.91a1.1 1.1 0 01-1.12 1 .83.83 0 01-.66-.27.85.85 0 01-.16-.7 1.11 1.11 0 011.11-1 .83.83 0 01.66.27.87.87 0 01.17.7zm6.64-1.94h-1a.29.29 0 00-.24.13l-1.37 2-.58-2a.29.29 0 00-.28-.21h-1a.17.17 0 00-.16.23l1.09 3.23-1 1.46a.17.17 0 00.14.27h1a.29.29 0 00.24-.12l3.3-4.8a.17.17 0 00-.14-.19zM25.14 16a1.91 1.91 0 00-1.5-.53h-2.07a.29.29 0 00-.28.24L20.46 21a.17.17 0 00.17.2h1.06a.2.2 0 00.2-.17l.24-1.51a.29.29 0 01.28-.24h.65a2.12 2.12 0 002.35-2 1.61 1.61 0 00-.27-1.28zm-1.27 1.42c-.11.75-.68.75-1.23.75h-.31l.22-1.39a.17.17 0 01.17-.15h.14c.37 0 .72 0 .91.21a.7.7 0 01.11.55zm5.93 0h-1a.17.17 0 00-.17.15v.28l-.07-.1a1.4 1.4 0 00-1.17-.42 2.28 2.28 0 00-2.21 2 1.89 1.89 0 00.37 1.53 1.54 1.54 0 001.25.51 1.89 1.89 0 001.37-.57v.28a.17.17 0 00.17.2h.89a.29.29 0 00.28-.24l.49-3.48a.17.17 0 00-.19-.2zm-1.37 1.88a1.1 1.1 0 01-1.12 1 .83.83 0 01-.66-.27.85.85 0 01-.16-.7 1.11 1.11 0 011.11-1 .83.83 0 01.66.27.86.86 0 01.17.7zm3.67-3.86h-1a.17.17 0 00-.17.15l-.8 5.41a.17.17 0 00.17.2h.85a.29.29 0 00.28-.24l.84-5.33a.17.17 0 00-.17-.19z" fill="#fff"/></svg>