<svg width="26" height="26" viewBox="0 0 26 26" fill="none" xmlns="http://www.w3.org/2000/svg">
<path d="M13 16.75C9.692 16.75 7 14.058 7 10.75C7 7.442 9.692 4.75 13 4.75C16.308 4.75 19 7.442 19 10.75C19 14.058 16.308 16.75 13 16.75ZM13 6.25C10.519 6.25 8.5 8.269 8.5 10.75C8.5 13.231 10.519 15.25 13 15.25C15.481 15.25 17.5 13.231 17.5 10.75C17.5 8.269 15.481 6.25 13 6.25Z" fill="black" stroke="black" stroke-width="0.5"/>
<path d="M13 25C10.323 25 7.789 24.132 5.668 22.49C5.62102 22.4639 5.57849 22.4305 5.542 22.391C2.655 20.094 1 16.674 1 13C1 6.383 6.383 1 13 1C19.617 1 25 6.383 25 13C25 16.674 23.345 20.094 20.457 22.391L20.442 22.407C20.399 22.45 20.355 22.476 20.33 22.491C18.2361 24.1238 15.6552 25.0072 13 25V25ZM7.284 21.801C8.98284 22.9127 10.9697 23.5033 13 23.5C15.0306 23.5034 17.0178 22.9128 18.717 21.801C17.1074 20.4754 15.0862 19.7523 13.001 19.756C10.9155 19.7519 8.89379 20.4751 7.284 21.801V21.801ZM13 2.5C7.21 2.5 2.5 7.21 2.5 13C2.5 16.023 3.794 18.875 6.062 20.874C7.97696 19.1828 10.4452 18.2518 13 18.257C15.573 18.257 18.023 19.184 19.938 20.873C22.206 18.873 23.5 16.022 23.5 12.999C23.5 7.21 18.79 2.5 13 2.5Z" fill="black" stroke="black" stroke-width="0.5"/>
</svg>
