<svg width="13" height="13" viewBox="0 0 13 13" xmlns="http://www.w3.org/2000/svg">
    <path d="M12.661 0.152259C12.4858 0.026636 12.268 -0.024238 12.0554 0.0108278C11.8428 0.0458937 11.6528 0.164027 11.5273 0.339243L3.92498 10.9447L1.38727 8.40339C1.31184 8.32787 1.22228 8.26796 1.1237 8.22708C1.02512 8.1862 0.919466 8.16514 0.812758 8.16512C0.706051 8.16509 0.600383 8.1861 0.501788 8.22693C0.403193 8.26777 0.313602 8.32763 0.238131 8.40311C0.162659 8.47859 0.102785 8.56821 0.0619263 8.66684C0.0210677 8.76548 2.51703e-05 8.87119 2.25671e-08 8.97796C-2.51252e-05 9.08473 0.0209676 9.19046 0.0617797 9.28912C0.102592 9.38777 0.162424 9.47741 0.23786 9.55293L3.45264 12.769C3.53705 12.8503 3.63775 12.9127 3.74809 12.952C3.85842 12.9914 3.97585 13.0068 4.0926 12.9973C4.20934 12.9877 4.32272 12.9535 4.42522 12.8967C4.52772 12.84 4.61698 12.7621 4.6871 12.6682L12.8478 1.28663C12.9734 1.1114 13.0242 0.893452 12.9892 0.680719C12.9541 0.467986 12.8361 0.277895 12.661 0.152259Z"/>
</svg>