<svg width="23" height="20" viewBox="0 0 23 20" xmlns="http://www.w3.org/2000/svg">
    <g clip-path="url(#clip0)">
        <path d="M1.35995 10.9375H13.3883C13.5655 10.9375 13.7354 10.8716 13.8608 10.7544C13.9861 10.6372 14.0565 10.4782 14.0565 10.3125V3.70496C14.0393 3.54422 13.9885 3.38822 13.9068 3.24588C13.8251 3.10353 13.7143 2.97764 13.5805 2.8754C13.4468 2.77316 13.2929 2.69658 13.1275 2.65003C12.9621 2.60349 12.7885 2.58789 12.6167 2.60413H2.13154C1.9597 2.58789 1.78612 2.60349 1.62073 2.65003C1.45534 2.69658 1.30138 2.77316 1.16766 2.8754C1.03393 2.97764 0.923069 3.10353 0.841402 3.24588C0.759736 3.38822 0.708869 3.54422 0.691711 3.70496L0.691711 10.3125C0.691711 10.4782 0.762115 10.6372 0.887434 10.7544C1.01275 10.8716 1.18272 10.9375 1.35995 10.9375ZM10.4926 4.47913V9.06246C10.4926 9.22822 10.4221 9.38719 10.2968 9.5044C10.1715 9.62161 10.0015 9.68746 9.82431 9.68746C9.64708 9.68746 9.47711 9.62161 9.3518 9.5044C9.22648 9.38719 9.15607 9.22822 9.15607 9.06246V4.47913C9.15607 4.31337 9.22648 4.1544 9.3518 4.03719C9.47711 3.91998 9.64708 3.85413 9.82431 3.85413C10.0015 3.85413 10.1715 3.91998 10.2968 4.03719C10.4221 4.1544 10.4926 4.31337 10.4926 4.47913ZM5.14664 4.47913V9.06246C5.14664 9.22822 5.07623 9.38719 4.95092 9.5044C4.8256 9.62161 4.65563 9.68746 4.4784 9.68746C4.30117 9.68746 4.1312 9.62161 4.00588 9.5044C3.88056 9.38719 3.81016 9.22822 3.81016 9.06246V4.47913C3.81016 4.31337 3.88056 4.1544 4.00588 4.03719C4.1312 3.91998 4.30117 3.85413 4.4784 3.85413C4.65563 3.85413 4.8256 3.91998 4.95092 4.03719C5.07623 4.1544 5.14664 4.31337 5.14664 4.47913Z" />
        <path d="M22.0754 9.06246C22.0754 8.1784 21.6999 7.33056 21.0315 6.70544C20.3631 6.08032 19.4566 5.72913 18.5114 5.72913H15.8385C15.6022 5.72913 15.3755 5.81692 15.2084 5.9732C15.0413 6.12948 14.9475 6.34145 14.9475 6.56246V11.5625C14.9475 11.6177 14.924 11.6707 14.8822 11.7098C14.8405 11.7488 14.7838 11.7708 14.7247 11.7708H1.35995C1.18272 11.7708 1.01275 11.8366 0.887434 11.9539C0.762115 12.0711 0.691711 12.23 0.691711 12.3958L0.691711 14.8958C0.691711 15.0616 0.762115 15.2205 0.887434 15.3377C1.01275 15.4549 1.18272 15.5208 1.35995 15.5208H2.2643C2.32351 15.5205 2.38019 15.4983 2.422 15.4591C2.46378 15.4193 2.48714 15.3657 2.48705 15.31C2.48705 14.9286 2.56736 14.5509 2.72341 14.1986C2.87945 13.8462 3.10817 13.5261 3.3965 13.2564C3.68484 12.9867 4.02714 12.7728 4.40387 12.6269C4.78059 12.4809 5.18437 12.4058 5.59213 12.4058C5.9999 12.4058 6.40367 12.4809 6.78039 12.6269C7.15712 12.7728 7.49942 12.9867 7.78776 13.2564C8.07609 13.5261 8.30481 13.8462 8.46085 14.1986C8.6169 14.5509 8.69721 14.9286 8.69721 15.31C8.69712 15.3657 8.72048 15.4193 8.76226 15.4591C8.80408 15.4983 8.86075 15.5205 8.91996 15.5208H12.0651C12.1243 15.5205 12.181 15.4983 12.2228 15.4591C12.2646 15.4193 12.288 15.3657 12.2879 15.31C12.2809 14.9236 12.3562 14.5398 12.5095 14.181C12.6627 13.8222 12.8908 13.4955 13.1804 13.2199C13.4701 12.9444 13.8155 12.7256 14.1965 12.5762C14.5775 12.4268 14.9865 12.3499 15.3997 12.3499C15.8128 12.3499 16.2218 12.4268 16.6028 12.5762C16.9838 12.7256 17.3292 12.9444 17.6189 13.2199C17.9085 13.4955 18.1366 13.8222 18.2898 14.181C18.4431 14.5398 18.5184 14.9236 18.5114 15.31C18.5112 15.3721 18.5073 15.4341 18.4998 15.4958C18.4966 15.5249 18.4999 15.5543 18.5096 15.5821C18.5192 15.6099 18.535 15.6355 18.556 15.6573C18.5769 15.679 18.6024 15.6965 18.631 15.7084C18.6595 15.7203 18.6904 15.7266 18.7217 15.7266H20.2934C20.766 15.7266 21.2192 15.551 21.5534 15.2385C21.8876 14.9259 22.0754 14.502 22.0754 14.06V9.06246ZM20.2934 9.06246V9.67246C20.2933 9.70007 20.2873 9.72738 20.2759 9.75283C20.2644 9.77827 20.2477 9.80135 20.2266 9.82071C20.2056 9.84008 20.1807 9.85536 20.1533 9.86567C20.1259 9.87598 20.0966 9.88112 20.0671 9.88079L17.8396 9.84913C17.7812 9.84825 17.7254 9.82592 17.6844 9.78694C17.6434 9.74796 17.6204 9.69547 17.6204 9.64079V7.60413C17.6204 7.54887 17.6439 7.49588 17.6857 7.45681C17.7274 7.41774 17.7841 7.39579 17.8432 7.39579H18.5114C18.984 7.39579 19.4373 7.57139 19.7715 7.88395C20.1056 8.19651 20.2934 8.62043 20.2934 9.06246Z" />
        <path d="M15.393 17.3958C16.6232 17.3958 17.6205 16.4631 17.6205 15.3125C17.6205 14.1619 16.6232 13.2291 15.393 13.2291C14.1628 13.2291 13.1655 14.1619 13.1655 15.3125C13.1655 16.4631 14.1628 17.3958 15.393 17.3958Z" />
        <path d="M5.59215 17.3958C6.82234 17.3958 7.81961 16.4631 7.81961 15.3125C7.81961 14.1619 6.82234 13.2291 5.59215 13.2291C4.36195 13.2291 3.36469 14.1619 3.36469 15.3125C3.36469 16.4631 4.36195 17.3958 5.59215 17.3958Z" />
    </g>
    <defs>
        <clipPath id="clip0">
            <rect width="21.3836" height="20" transform="translate(0.691711)"/>
        </clipPath>
    </defs>
</svg>
