<svg viewBox="0 0 20 20" xmlns="http://www.w3.org/2000/svg">
  <g clip-path="url(#clip0)">
    <path d="M.7 10.938h11.178a.627.627 0 00.621-.625V3.705a1.234 1.234 0 00-.863-1.055 1.214 1.214 0 00-.475-.046H1.416a1.214 1.214 0 00-1.199.642 1.235 1.235 0 00-.139.46v6.607a.627.627 0 00.621.625zm8.487-6.459v4.584a.627.627 0 01-.62.625.62.62 0 01-.622-.625V4.479a.627.627 0 01.621-.625.62.62 0 01.621.625zm-4.968 0v4.584a.627.627 0 01-.621.625.62.62 0 01-.622-.625V4.479a.627.627 0 01.622-.625.62.62 0 01.62.625z" />
    <path d="M19.952 9.062c0-.884-.349-1.732-.97-2.357a3.302 3.302 0 00-2.342-.976h-2.484c-.22 0-.43.088-.586.244a.836.836 0 00-.242.59v5a.21.21 0 01-.207.208H.699a.62.62 0 00-.62.625v2.5a.627.627 0 00.62.625h.84a.208.208 0 00.208-.211 2.92 2.92 0 01.845-2.054 2.885 2.885 0 012.04-.85 2.871 2.871 0 012.041.85 2.905 2.905 0 01.846 2.054.208.208 0 00.207.21h2.923a.208.208 0 00.207-.21 2.927 2.927 0 01.83-2.09 2.89 2.89 0 012.062-.87 2.876 2.876 0 012.062.87 2.911 2.911 0 01.82 2.276.21.21 0 00.205.23h1.461c.44 0 .86-.175 1.171-.488.31-.312.485-.736.485-1.178V9.062zm-1.656 0v.61a.213.213 0 01-.062.149.207.207 0 01-.148.06l-2.07-.032a.207.207 0 01-.204-.208V7.604a.21.21 0 01.207-.208h.621c.44 0 .86.175 1.171.488.31.312.485.736.485 1.178z" />
    <path d="M13.742 17.396c1.143 0 2.07-.933 2.07-2.084 0-1.15-.927-2.083-2.07-2.083-1.144 0-2.07.933-2.07 2.083 0 1.15.926 2.084 2.07 2.084zM4.633 17.396c1.143 0 2.07-.933 2.07-2.084 0-1.15-.927-2.083-2.07-2.083-1.144 0-2.07.933-2.07 2.083 0 1.15.926 2.084 2.07 2.084z" />
  </g>
  <defs>
    <clipPath id="clip0">
      <path transform="translate(.078)" d="M0 0h19.874v20H0z"/>
    </clipPath>
  </defs>
</svg>
