<svg data-name="Layer 1" xmlns="http://www.w3.org/2000/svg" viewBox="0 0 38 38"><rect y="7.12" width="38" height="23.75" rx="4.75" ry="4.75"/><path d="M15.76 15.57l-2.87 6.89H11L9.61 17a.75.75 0 00-.42-.61 7.36 7.36 0 00-1.75-.59v-.2h3a.83.83 0 01.82.7l.75 4 1.84-4.69zm7.33 4.64c0-1.82-2.5-1.92-2.48-2.73 0-.25.24-.51.75-.58a3.32 3.32 0 011.74.31l.31-1.46a4.72 4.72 0 00-1.66-.31c-1.75 0-3 .94-3 2.28 0 1 .88 1.55 1.55 1.88s.92.55.92.86c0 .46-.55.67-1.06.67a3.68 3.68 0 01-1.82-.44L18 22.2a5.32 5.32 0 002 .37c1.86 0 3.07-.92 3.08-2.36m4.62 2.25h1.64l-1.43-6.89h-1.5a.81.81 0 00-.75.51L23 22.46h1.86l.37-1h2.27zm-2-2.44l.93-2.59.57 2.57zm-7.44-4.45l-1.46 6.89h-1.74l1.46-6.89z" fill="#fff"/></svg>