<svg id="Capa_1" data-name="Capa 1" xmlns="http://www.w3.org/2000/svg" viewBox="0 0 38.1 23.8"><path class="cls-1" d="M36.7,1.4A5,5,0,0,0,33.2,0H4.8A4.78,4.78,0,0,0,0,4.8V19a4.78,4.78,0,0,0,4.8,4.8H33.3A4.78,4.78,0,0,0,38.1,19V4.8A4.76,4.76,0,0,0,36.7,1.4ZM37,19a4,4,0,0,1-1.1,2.7,3.86,3.86,0,0,1-2.7,1.1H4.8a4,4,0,0,1-2.7-1.1A3.86,3.86,0,0,1,1,19V4.8A4,4,0,0,1,2.1,2.1,3.86,3.86,0,0,1,4.8,1H33.3A4,4,0,0,1,36,2.1a4.27,4.27,0,0,1,1,2.7Z"/><path class="cls-1" d="M26.4,8.5a.9.9,0,0,0-.5.1,1.38,1.38,0,0,0-.3.4L23,15.4h1.9l.4-1h2.3l.2,1h1.6L28,8.5Zm-.7,4.4.9-2.6.6,2.6Z"/><path class="cls-1" d="M20.6,10.4c0-.2.2-.5.8-.6a3.23,3.23,0,0,1,1.7.3l.3-1.5a4.67,4.67,0,0,0-1.7-.3c-1.8,0-3,.9-3,2.3a2.27,2.27,0,0,0,1.6,1.9c.7.3.9.6.9.9,0,.5-.5.7-1.1.7a3.66,3.66,0,0,1-1.8-.4L18,15.1a4.48,4.48,0,0,0,2,.4c1.9,0,3.1-.9,3.1-2.4C23.1,11.3,20.6,11.2,20.6,10.4Z"/><path class="cls-1" d="M13.8,8.5,12,13.2l-.8-4a.55.55,0,0,0-.3-.5c-.2-.1-.3-.2-.5-.2h-3v.2a6.36,6.36,0,0,1,1.8.6c.1.1.2.1.3.2s.1.2.1.4L11,15.4h1.9l2.9-6.9Z"/><polygon class="cls-1" points="16.5 8.5 15.1 15.4 16.8 15.4 18.3 8.5 16.5 8.5"/></svg>
