<svg viewBox="0 0 20 20" fill="none" xmlns="http://www.w3.org/2000/svg">
  <path d="M9.53 16.16a.208.208 0 00-.038-.224L2.776 8.66a3.685 3.685 0 01-.708-4.3 3.743 3.743 0 012.774-2.017 3.815 3.815 0 013.325 1.074l1.275 1.166a.833.833 0 001.123 0l1.3-1.186A3.79 3.79 0 0115.17 2.35a3.75 3.75 0 012.773 2.016 3.644 3.644 0 01-.852 4.348.206.206 0 00-.045.23l.523 1.214a.208.208 0 00.33.074l.238-.212a5.326 5.326 0 001.296-6.413 5.488 5.488 0 00-8.71-1.425l-.716.651-.69-.629A5.44 5.44 0 004.574.698a5.397 5.397 0 00-3.99 2.909 5.333 5.333 0 001 6.211l7.065 7.656a.207.207 0 00.288.018.208.208 0 00.06-.086c.008-.035.533-1.246.533-1.246z" fill="#000"/>
  <path d="M18.948 11.874h-2.22l-1.175-2.722-.01-.024a1.077 1.077 0 00-1.932.024l-1.175 2.722h-2.221a1.024 1.024 0 00-.972.633 1.06 1.06 0 00.266 1.167l1.94 1.73-1.079 2.483a1.047 1.047 0 00.263 1.21 1.07 1.07 0 001.254.138l2.696-1.52 2.696 1.517a1.063 1.063 0 001.255-.139 1.045 1.045 0 00.262-1.208l-1.083-2.484 1.957-1.743a1.053 1.053 0 00.25-1.149 1.026 1.026 0 00-.972-.635z" fill="#000"/>
</svg>
