<svg width="22" height="20" viewBox="0 0 22 20" fill="none" xmlns="http://www.w3.org/2000/svg">
    <g clip-path="url(#clip0)">
        <path d="M0.668239 10.9375H12.6965C12.8738 10.9375 13.0437 10.8717 13.1691 10.7545C13.2944 10.6373 13.3648 10.4783 13.3648 10.3125V3.70502C13.3476 3.54428 13.2968 3.38828 13.2151 3.24594C13.1334 3.10359 13.0226 2.9777 12.8888 2.87546C12.7551 2.77323 12.6012 2.69664 12.4358 2.65009C12.2704 2.60355 12.0968 2.58795 11.9249 2.60419H1.43983C1.26799 2.58795 1.09441 2.60355 0.92902 2.65009C0.763628 2.69664 0.609669 2.77323 0.475945 2.87546C0.342222 2.9777 0.231357 3.10359 0.149691 3.24594C0.0680241 3.38828 0.0171577 3.54428 0 3.70502L0 10.3125C0 10.4783 0.0704035 10.6373 0.195723 10.7545C0.321042 10.8717 0.491011 10.9375 0.668239 10.9375ZM9.80084 4.47919V9.06252C9.80084 9.22828 9.73044 9.38726 9.60512 9.50447C9.4798 9.62168 9.30983 9.68752 9.1326 9.68752C8.95537 9.68752 8.7854 9.62168 8.66008 9.50447C8.53477 9.38726 8.46436 9.22828 8.46436 9.06252V4.47919C8.46436 4.31343 8.53477 4.15446 8.66008 4.03725C8.7854 3.92004 8.95537 3.85419 9.1326 3.85419C9.30983 3.85419 9.4798 3.92004 9.60512 4.03725C9.73044 4.15446 9.80084 4.31343 9.80084 4.47919ZM4.45493 4.47919V9.06252C4.45493 9.22828 4.38452 9.38726 4.2592 9.50447C4.13388 9.62168 3.96392 9.68752 3.78669 9.68752C3.60946 9.68752 3.43949 9.62168 3.31417 9.50447C3.18885 9.38726 3.11845 9.22828 3.11845 9.06252V4.47919C3.11845 4.31343 3.18885 4.15446 3.31417 4.03725C3.43949 3.92004 3.60946 3.85419 3.78669 3.85419C3.96392 3.85419 4.13388 3.92004 4.2592 4.03725C4.38452 4.15446 4.45493 4.31343 4.45493 4.47919Z" fill="#FFCE18"/>
        <path d="M21.3836 9.06252C21.3836 8.17847 21.0082 7.33062 20.3398 6.7055C19.6714 6.08038 18.7649 5.72919 17.8197 5.72919H15.1468C14.9104 5.72919 14.6838 5.81698 14.5167 5.97326C14.3496 6.12955 14.2558 6.34151 14.2558 6.56252V11.5625C14.2558 11.6178 14.2323 11.6708 14.1905 11.7098C14.1488 11.7489 14.0921 11.7709 14.033 11.7709H0.668239C0.491011 11.7709 0.321042 11.8367 0.195723 11.9539C0.0704035 12.0711 0 12.2301 0 12.3959L0 14.8959C0 15.0616 0.0704035 15.2206 0.195723 15.3378C0.321042 15.455 0.491011 15.5209 0.668239 15.5209H1.57259C1.63179 15.5205 1.68847 15.4984 1.73029 15.4592C1.77207 15.4194 1.79543 15.3658 1.79534 15.31C1.79534 14.9286 1.87565 14.551 2.0317 14.1986C2.18774 13.8463 2.41646 13.5261 2.70479 13.2565C2.99313 12.9868 3.33543 12.7729 3.71216 12.6269C4.08888 12.481 4.49265 12.4059 4.90042 12.4059C5.30818 12.4059 5.71196 12.481 6.08868 12.6269C6.46541 12.7729 6.80771 12.9868 7.09605 13.2565C7.38438 13.5261 7.6131 13.8463 7.76914 14.1986C7.92519 14.551 8.0055 14.9286 8.0055 15.31C8.00541 15.3658 8.02877 15.4194 8.07054 15.4592C8.11236 15.4984 8.16904 15.5205 8.22825 15.5209H11.3734C11.4326 15.5205 11.4893 15.4984 11.5311 15.4592C11.5729 15.4194 11.5963 15.3658 11.5962 15.31C11.5892 14.9237 11.6645 14.5399 11.8177 14.1811C11.971 13.8222 12.1991 13.4955 12.4887 13.22C12.7784 12.9445 13.1238 12.7256 13.5048 12.5762C13.8858 12.4269 14.2948 12.3499 14.7079 12.3499C15.1211 12.3499 15.5301 12.4269 15.9111 12.5762C16.2921 12.7256 16.6375 12.9445 16.9271 13.22C17.2168 13.4955 17.4449 13.8222 17.5981 14.1811C17.7514 14.5399 17.8267 14.9237 17.8197 15.31C17.8195 15.3721 17.8156 15.4342 17.8081 15.4959C17.8049 15.5249 17.8082 15.5543 17.8179 15.5822C17.8275 15.61 17.8433 15.6356 17.8642 15.6574C17.8851 15.6791 17.9107 15.6965 17.9392 15.7085C17.9678 15.7204 17.9987 15.7266 18.03 15.7267H19.6017C20.0743 15.7267 20.5275 15.5511 20.8617 15.2385C21.1959 14.926 21.3836 14.502 21.3836 14.06V9.06252ZM19.6017 9.06252V9.67252C19.6016 9.70013 19.5956 9.72744 19.5841 9.75289C19.5727 9.77834 19.556 9.80141 19.5349 9.82077C19.5139 9.84014 19.4889 9.85542 19.4616 9.86573C19.4342 9.87604 19.4049 9.88118 19.3754 9.88085L17.1479 9.84919C17.0894 9.84831 17.0337 9.82598 16.9927 9.787C16.9517 9.74803 16.9287 9.69553 16.9287 9.64085V7.60419C16.9287 7.54893 16.9522 7.49594 16.994 7.45687C17.0357 7.4178 17.0924 7.39585 17.1515 7.39585H17.8197C18.2923 7.39585 18.7456 7.57145 19.0798 7.88401C19.4139 8.19657 19.6017 8.62049 19.6017 9.06252Z" fill="#FFCE18"/>
        <path d="M14.7012 17.3959C15.9314 17.3959 16.9287 16.4631 16.9287 15.3125C16.9287 14.1619 15.9314 13.2292 14.7012 13.2292C13.471 13.2292 12.4738 14.1619 12.4738 15.3125C12.4738 16.4631 13.471 17.3959 14.7012 17.3959Z" fill="#FFCE18"/>
        <path d="M4.90044 17.3959C6.13063 17.3959 7.1279 16.4631 7.1279 15.3125C7.1279 14.1619 6.13063 13.2292 4.90044 13.2292C3.67024 13.2292 2.67297 14.1619 2.67297 15.3125C2.67297 16.4631 3.67024 17.3959 4.90044 17.3959Z" fill="#FFCE18"/>
    </g>
    <defs>
        <clipPath id="clip0">
            <rect width="21.3836" height="20" fill="white"/>
        </clipPath>
    </defs>
</svg>