<svg width="16" height="16" viewBox="0 0 16 16" fill="none" xmlns="http://www.w3.org/2000/svg">
    <path d="M15.5827 0.187396C15.3672 0.0327828 15.0991 -0.0298314 14.8374 0.0133266C14.5757 0.0564845 14.3419 0.20188 14.1874 0.41753L4.83074 13.4704L1.70741 10.3426C1.61457 10.2497 1.50434 10.176 1.38302 10.1256C1.26169 10.0753 1.13165 10.0494 1.00032 10.0494C0.868985 10.0493 0.738933 10.0752 0.617585 10.1255C0.496238 10.1757 0.385972 10.2494 0.293084 10.3423C0.200196 10.4352 0.126504 10.5455 0.076217 10.6669C0.0259295 10.7883 3.09789e-05 10.9184 2.77749e-08 11.0498C-3.09233e-05 11.1812 0.0258063 11.3113 0.0760366 11.4328C0.126267 11.5542 0.199906 11.6645 0.292751 11.7574L4.24941 15.7157C4.35329 15.8158 4.47724 15.8925 4.61303 15.941C4.74883 15.9894 4.89336 16.0084 5.03704 15.9966C5.18073 15.9849 5.32027 15.9427 5.44642 15.8729C5.57257 15.8031 5.68244 15.7072 5.76874 15.5917L15.8127 1.58354C15.9672 1.36788 16.0298 1.09963 15.9867 0.837808C15.9435 0.575983 15.7982 0.342025 15.5827 0.187396Z" fill="#FFCE18"/>
</svg>