<svg width="24" height="24" viewBox="0 0 24 24" fill="none" xmlns="http://www.w3.org/2000/svg">
<g clip-path="url(#clip0)">
<path d="M0.75 13.1249H14.25C14.4489 13.1249 14.6397 13.0459 14.7803 12.9052C14.921 12.7646 15 12.5738 15 12.3749V4.44591C14.9807 4.25302 14.9237 4.06581 14.832 3.895C14.7403 3.72419 14.6159 3.57312 14.4658 3.45044C14.3157 3.32775 14.1429 3.23585 13.9573 3.17999C13.7717 3.12413 13.5769 3.10542 13.384 3.12491H1.616C1.42313 3.10542 1.22832 3.12413 1.04269 3.17999C0.85706 3.23585 0.684264 3.32775 0.534179 3.45044C0.384094 3.57312 0.259664 3.72419 0.168006 3.895C0.076347 4.06581 0.019257 4.25302 0 4.44591L0 12.3749C0 12.5738 0.0790176 12.7646 0.21967 12.9052C0.360322 13.0459 0.551088 13.1249 0.75 13.1249ZM11 5.37491V10.8749C11 11.0738 10.921 11.2646 10.7803 11.4052C10.6397 11.5459 10.4489 11.6249 10.25 11.6249C10.0511 11.6249 9.86032 11.5459 9.71967 11.4052C9.57902 11.2646 9.5 11.0738 9.5 10.8749V5.37491C9.5 5.17599 9.57902 4.98523 9.71967 4.84458C9.86032 4.70392 10.0511 4.62491 10.25 4.62491C10.4489 4.62491 10.6397 4.70392 10.7803 4.84458C10.921 4.98523 11 5.17599 11 5.37491ZM5 5.37491V10.8749C5 11.0738 4.92098 11.2646 4.78033 11.4052C4.63968 11.5459 4.44891 11.6249 4.25 11.6249C4.05109 11.6249 3.86032 11.5459 3.71967 11.4052C3.57902 11.2646 3.5 11.0738 3.5 10.8749V5.37491C3.5 5.17599 3.57902 4.98523 3.71967 4.84458C3.86032 4.70392 4.05109 4.62491 4.25 4.62491C4.44891 4.62491 4.63968 4.70392 4.78033 4.84458C4.92098 4.98523 5 5.17599 5 5.37491Z" fill="#98999F"/>
<path d="M24 10.875C24 9.81413 23.5786 8.79672 22.8284 8.04657C22.0783 7.29643 21.0609 6.875 20 6.875H17C16.7348 6.875 16.4804 6.98036 16.2929 7.16789C16.1054 7.35543 16 7.60978 16 7.875V13.875C16 13.9413 15.9737 14.0049 15.9268 14.0518C15.8799 14.0987 15.8163 14.125 15.75 14.125H0.75C0.551088 14.125 0.360322 14.204 0.21967 14.3447C0.0790176 14.4853 0 14.6761 0 14.875L0 17.875C0 18.0739 0.0790176 18.2647 0.21967 18.4053C0.360322 18.546 0.551088 18.625 0.75 18.625H1.765C1.83145 18.6246 1.89506 18.598 1.942 18.551C1.98888 18.5032 2.0151 18.4389 2.015 18.372C2.015 17.9143 2.10514 17.4612 2.28028 17.0383C2.45542 16.6155 2.71212 16.2313 3.03573 15.9077C3.35934 15.5841 3.74353 15.3274 4.16635 15.1523C4.58917 14.9771 5.04234 14.887 5.5 14.887C5.95766 14.887 6.41083 14.9771 6.83365 15.1523C7.25647 15.3274 7.64066 15.5841 7.96427 15.9077C8.28788 16.2313 8.54458 16.6155 8.71972 17.0383C8.89486 17.4612 8.985 17.9143 8.985 18.372C8.9849 18.4389 9.01112 18.5032 9.058 18.551C9.10494 18.598 9.16855 18.6246 9.235 18.625H12.765C12.8314 18.6246 12.8951 18.598 12.942 18.551C12.9889 18.5032 13.0151 18.4389 13.015 18.372C13.0072 17.9084 13.0917 17.4478 13.2637 17.0172C13.4357 16.5866 13.6917 16.1946 14.0168 15.864C14.3419 15.5333 14.7295 15.2707 15.1571 15.0915C15.5848 14.9122 16.0438 14.8199 16.5075 14.8199C16.9712 14.8199 17.4302 14.9122 17.8579 15.0915C18.2855 15.2707 18.6731 15.5333 18.9982 15.864C19.3233 16.1946 19.5793 16.5866 19.7513 17.0172C19.9233 17.4478 20.0078 17.9084 20 18.372C19.9997 18.4465 19.9954 18.521 19.987 18.595C19.9834 18.6299 19.9871 18.6652 19.9979 18.6986C20.0088 18.732 20.0265 18.7627 20.05 18.7888C20.0734 18.8149 20.1021 18.8358 20.1342 18.8501C20.1662 18.8645 20.2009 18.8719 20.236 18.872H22C22.5304 18.872 23.0391 18.6613 23.4142 18.2862C23.7893 17.9111 24 17.4024 24 16.872V10.875ZM22 10.875V11.607C21.9999 11.6401 21.9932 11.6729 21.9803 11.7034C21.9675 11.734 21.9487 11.7617 21.9251 11.7849C21.9015 11.8081 21.8735 11.8265 21.8427 11.8389C21.812 11.8512 21.7791 11.8574 21.746 11.857L19.246 11.819C19.1804 11.818 19.1178 11.7911 19.0718 11.7444C19.0258 11.6976 19 11.6346 19 11.569V9.125C19 9.0587 19.0263 8.99511 19.0732 8.94822C19.1201 8.90134 19.1837 8.875 19.25 8.875H20C20.5304 8.875 21.0391 9.08571 21.4142 9.46079C21.7893 9.83586 22 10.3446 22 10.875Z" fill="#98999F"/>
<path d="M16.5 20.875C17.8807 20.875 19 19.7557 19 18.375C19 16.9943 17.8807 15.875 16.5 15.875C15.1193 15.875 14 16.9943 14 18.375C14 19.7557 15.1193 20.875 16.5 20.875Z" fill="#98999F"/>
<path d="M5.5 20.875C6.88071 20.875 8 19.7557 8 18.375C8 16.9943 6.88071 15.875 5.5 15.875C4.11929 15.875 3 16.9943 3 18.375C3 19.7557 4.11929 20.875 5.5 20.875Z" fill="#98999F"/>
</g>
<defs>
<clipPath id="clip0">
<rect width="24" height="24" fill="white"/>
</clipPath>
</defs>
</svg>
