<svg width="38" height="38" viewBox="0 0 38 38" fill="none" xmlns="http://www.w3.org/2000/svg">
<path d="M33.25 7.12988H4.75C2.12665 7.12988 0 9.25653 0 11.8799V26.1299C0 28.7532 2.12665 30.8799 4.75 30.8799H33.25C35.8734 30.8799 38 28.7532 38 26.1299V11.8799C38 9.25653 35.8734 7.12988 33.25 7.12988Z" fill="white"/>
<path d="M18.11 15.08C17.3965 14.5917 16.5632 14.3074 15.7 14.2578C14.8368 14.2082 13.9764 14.3952 13.2116 14.7985C12.4468 15.2019 11.8066 15.8063 11.3601 16.5467C10.9135 17.2871 10.6775 18.1354 10.6775 19C10.6775 19.8646 10.9135 20.7129 11.3601 21.4533C11.8066 22.1937 12.4468 22.7981 13.2116 23.2015C13.9764 23.6048 14.8368 23.7918 15.7 23.7422C16.5632 23.6926 17.3965 23.4083 18.11 22.92C17.1519 21.839 16.6229 20.4445 16.6229 19C16.6229 17.5555 17.1519 16.161 18.11 15.08Z" fill="#31333E"/>
<path d="M22.5601 23.75C25.1834 23.75 27.3101 21.6234 27.3101 19C27.3101 16.3766 25.1834 14.25 22.5601 14.25C19.9367 14.25 17.8101 16.3766 17.8101 19C17.8101 21.6234 19.9367 23.75 22.5601 23.75Z" fill="#31333E"/>
</svg>
