<svg width="24" height="24" viewBox="0 0 24 24" fill="none" xmlns="http://www.w3.org/2000/svg">
<path d="M15.973 8.27101C16.0166 8.25113 16.0536 8.21911 16.0796 8.17877C16.1055 8.13843 16.1193 8.09148 16.1193 8.04351C16.1193 7.99555 16.1055 7.9486 16.0796 7.90826C16.0536 7.86792 16.0166 7.8359 15.973 7.81601L6.21596 3.36801C6.15205 3.33962 6.0829 3.32495 6.01296 3.32495C5.94303 3.32495 5.87387 3.33962 5.80996 3.36801L1.99296 5.02401C1.94787 5.04323 1.90941 5.07527 1.88238 5.11616C1.85535 5.15706 1.84094 5.205 1.84094 5.25401C1.84094 5.30303 1.85535 5.35097 1.88238 5.39186C1.90941 5.43276 1.94787 5.4648 1.99296 5.48401L12.283 9.77201C12.3465 9.7986 12.4148 9.81179 12.4836 9.81076C12.5524 9.80973 12.6203 9.7945 12.683 9.76601L15.973 8.27101Z" />
<path d="M22.062 5.49991C22.1059 5.48015 22.1432 5.44812 22.1694 5.40768C22.1956 5.36723 22.2095 5.32008 22.2095 5.27191C22.2095 5.22374 22.1956 5.1766 22.1694 5.13615C22.1432 5.0957 22.1059 5.06367 22.062 5.04391L12.4 0.846913C12.2739 0.791849 12.1377 0.763428 12 0.763428C11.8624 0.763428 11.7262 0.791849 11.6 0.846913L8.38002 2.24691C8.3358 2.26654 8.29823 2.29858 8.27185 2.33914C8.24548 2.37969 8.23145 2.42703 8.23145 2.47541C8.23145 2.52379 8.24548 2.57113 8.27185 2.61169C8.29823 2.65225 8.3358 2.68428 8.38002 2.70391L18.08 7.12591C18.145 7.15548 18.2156 7.17077 18.287 7.17077C18.3584 7.17077 18.429 7.15548 18.494 7.12591L22.062 5.49991Z" />
<path d="M0.846 6.63001C0.807998 6.6142 0.766683 6.60802 0.72572 6.61202C0.684758 6.61602 0.645416 6.63007 0.611186 6.65292C0.576957 6.67577 0.548899 6.70672 0.529503 6.74302C0.510107 6.77932 0.499973 6.81985 0.5 6.86101V18.007C0.499984 18.2044 0.558372 18.3973 0.667811 18.5616C0.77725 18.7258 0.932846 18.854 1.115 18.93L11.4 23.217C11.438 23.2328 11.4793 23.239 11.5203 23.235C11.5612 23.231 11.6006 23.2169 11.6348 23.1941C11.669 23.1712 11.6971 23.1403 11.7165 23.104C11.7359 23.0677 11.746 23.0272 11.746 22.986V11.34C11.7459 11.2906 11.7312 11.2424 11.7038 11.2013C11.6765 11.1602 11.6375 11.1281 11.592 11.109L0.846 6.63001Z" />
<path d="M13.25 22.9439C13.2502 22.9857 13.2608 23.0267 13.2809 23.0632C13.3009 23.0998 13.3298 23.1308 13.3648 23.1535C13.3999 23.1761 13.44 23.1896 13.4816 23.1929C13.5232 23.1961 13.5649 23.1889 13.603 23.1719L22.914 18.9399C23.0887 18.8605 23.2368 18.7324 23.3408 18.5711C23.4447 18.4097 23.4999 18.2219 23.5 18.0299V6.88595C23.5 6.84414 23.4896 6.80299 23.4696 6.76627C23.4496 6.72955 23.4208 6.69842 23.3856 6.67574C23.3505 6.65306 23.3103 6.63954 23.2686 6.63643C23.2269 6.63333 23.1851 6.64072 23.147 6.65795L13.4 11.0899C13.3562 11.1095 13.3189 11.1414 13.2928 11.1816C13.2667 11.2219 13.2529 11.2689 13.253 11.3169L13.25 22.9439Z" />
</svg>
