<svg width="24" height="24" viewBox="0 0 24 24" fill="none" xmlns="http://www.w3.org/2000/svg">
    <path d="M9.3 8.69998C9.15557 8.5074 9.08545 8.2692 9.10252 8.02909C9.11958 7.78898 9.22268 7.56308 9.39289 7.39287C9.5631 7.22266 9.789 7.11956 10.0291 7.10249C10.2692 7.08543 10.5074 7.15555 10.7 7.29998L14.7 11.3C14.8832 11.4869 14.9859 11.7382 14.9859 12C14.9859 12.2617 14.8832 12.513 14.7 12.7L10.7 16.7C10.5074 16.8444 10.2692 16.9145 10.0291 16.8975C9.789 16.8804 9.5631 16.7773 9.39289 16.6071C9.22268 16.4369 9.11958 16.211 9.10252 15.9709C9.08545 15.7308 9.15557 15.4925 9.3 15.3L12.59 12L9.29 8.69998H9.3Z" fill="#2D3748"/>
</svg>
