<svg width="24" height="24" viewBox="0 0 24 24" fill="none" xmlns="http://www.w3.org/2000/svg">
    <path d="M14.7 15.3001C14.8444 15.4927 14.9145 15.7309 14.8975 15.971C14.8804 16.2111 14.7773 16.437 14.6071 16.6072C14.4369 16.7774 14.211 16.8805 13.9709 16.8976C13.7308 16.9146 13.4926 16.8445 13.3 16.7001L9.29999 12.7001C9.11676 12.5132 9.01413 12.2619 9.01413 12.0001C9.01413 11.7383 9.11676 11.487 9.29999 11.3001L13.3 7.3001C13.4926 7.15567 13.7308 7.08555 13.9709 7.10261C14.211 7.11968 14.4369 7.22278 14.6071 7.39299C14.7773 7.5632 14.8804 7.7891 14.8975 8.02921C14.9145 8.26932 14.8444 8.50753 14.7 8.7001L11.42 12.0001L14.72 15.3001H14.7Z" fill="#2D3748"/>
</svg>
