<svg width="20" height="17" viewBox="0 0 20 17" fill="none" xmlns="http://www.w3.org/2000/svg">
<path d="M14.1301 0.792161C12.8348 0.769306 11.5811 1.25013 10.6333 2.13333L9.99995 2.75833L9.36662 2.13333C8.41879 1.25013 7.16514 0.769306 5.8698 0.792161C4.57446 0.815016 3.33856 1.33976 2.42247 2.25585C1.50639 3.17194 0.981642 4.40784 0.958787 5.70318C0.935932 6.99852 1.41675 8.25216 2.29995 9.19999L9.40829 16.3167C9.48576 16.3948 9.57792 16.4568 9.67947 16.4991C9.78102 16.5414 9.88994 16.5632 9.99995 16.5632C10.11 16.5632 10.2189 16.5414 10.3204 16.4991C10.422 16.4568 10.5142 16.3948 10.5916 16.3167L17.7 9.19999C18.5832 8.25216 19.064 6.99852 19.0411 5.70318C19.0183 4.40784 18.4935 3.17194 17.5774 2.25585C16.6613 1.33976 15.4254 0.815016 14.1301 0.792161Z" fill="#2D3748"/>
</svg>
