<svg width="24" height="24" viewBox="0 0 24 24" fill="none" xmlns="http://www.w3.org/2000/svg">
<path d="M22.5 4.5H1.5C1.23478 4.5 0.98043 4.60536 0.792893 4.79289C0.605357 4.98043 0.5 5.23478 0.5 5.5V18.5C0.5 18.7652 0.605357 19.0196 0.792893 19.2071C0.98043 19.3946 1.23478 19.5 1.5 19.5H22.5C22.7652 19.5 23.0196 19.3946 23.2071 19.2071C23.3946 19.0196 23.5 18.7652 23.5 18.5V5.5C23.5 5.23478 23.3946 4.98043 23.2071 4.79289C23.0196 4.60536 22.7652 4.5 22.5 4.5ZM3.5 8.5C3.30222 8.5 3.10888 8.44135 2.94443 8.33147C2.77998 8.22159 2.65181 8.06541 2.57612 7.88268C2.50043 7.69996 2.48063 7.49889 2.51921 7.30491C2.5578 7.11093 2.65304 6.93275 2.79289 6.79289C2.93275 6.65304 3.11093 6.5578 3.30491 6.51921C3.49889 6.48063 3.69996 6.50043 3.88268 6.57612C4.06541 6.65181 4.22159 6.77998 4.33147 6.94443C4.44135 7.10888 4.5 7.30222 4.5 7.5C4.5 7.76522 4.39464 8.01957 4.20711 8.20711C4.01957 8.39464 3.76522 8.5 3.5 8.5ZM12 15C11.4067 15 10.8266 14.8241 10.3333 14.4944C9.83994 14.1648 9.45542 13.6962 9.22836 13.1481C9.0013 12.5999 8.94189 11.9967 9.05764 11.4147C9.1734 10.8328 9.45912 10.2982 9.87868 9.87868C10.2982 9.45912 10.8328 9.1734 11.4147 9.05764C11.9967 8.94189 12.5999 9.0013 13.1481 9.22836C13.6962 9.45542 14.1648 9.83994 14.4944 10.3333C14.8241 10.8266 15 11.4067 15 12C15 12.7956 14.6839 13.5587 14.1213 14.1213C13.5587 14.6839 12.7956 15 12 15ZM20.5 17.5C20.3022 17.5 20.1089 17.4414 19.9444 17.3315C19.78 17.2216 19.6518 17.0654 19.5761 16.8827C19.5004 16.7 19.4806 16.4989 19.5192 16.3049C19.5578 16.1109 19.653 15.9327 19.7929 15.7929C19.9327 15.653 20.1109 15.5578 20.3049 15.5192C20.4989 15.4806 20.7 15.5004 20.8827 15.5761C21.0654 15.6518 21.2216 15.78 21.3315 15.9444C21.4414 16.1089 21.5 16.3022 21.5 16.5C21.5 16.7652 21.3946 17.0196 21.2071 17.2071C21.0196 17.3946 20.7652 17.5 20.5 17.5Z" fill="#98999F"/>
</svg>
