<svg width="20" height="23" viewBox="0 0 20 23" fill="none" xmlns="http://www.w3.org/2000/svg">
<path d="M20 3.59375V19.4062C20 20.5967 19.0402 21.5625 17.8571 21.5625H14.0491V13.6023H16.7545L17.1429 10.5656H14.0491V8.625C14.0491 7.74453 14.2902 7.14707 15.5446 7.14707H17.1429V4.43379C16.8661 4.39785 15.9196 4.3125 14.8125 4.3125C12.5089 4.3125 10.9286 5.72754 10.9286 8.32852V10.5701H8.21429V13.6068H10.933V21.5625H2.14286C0.959821 21.5625 0 20.5967 0 19.4062V3.59375C0 2.40332 0.959821 1.4375 2.14286 1.4375H17.8571C19.0402 1.4375 20 2.40332 20 3.59375Z" fill="white" fill-opacity="0.8"/>
</svg>
