<svg width="175" height="35" viewBox="0 0 175 35" fill="none" xmlns="http://www.w3.org/2000/svg">
<path d="M0.646 21.4C0.646 28.96 6.778 34.294 14.758 34.294C18.202 34.294 20.386 32.992 22.612 32.992C23.662 32.992 23.914 33.664 24.292 34.21L26.77 22.492H26.476C25.258 27.364 21.436 34 15.094 34C10.432 34 9.214 29.926 9.214 25.39C9.214 18.628 11.23 4.6 19.756 4.6C26.098 4.6 27.82 11.236 27.526 16.108H27.82L29.038 4.39C28.492 4.978 27.946 5.65 26.896 5.65C24.67 5.65 22.906 4.306 19.504 4.306C9.634 4.306 0.646 11.992 0.646 21.4ZM39.598 32.194C37.624 32.194 37.12 30.052 37.12 27.742C37.12 20.77 39.808 11.992 43.378 11.992C45.73 11.992 45.688 13.336 45.142 16.738L43.336 28.162C43.084 29.716 41.152 32.194 39.598 32.194ZM53.374 11.824C52.408 13.084 51.442 13.63 50.14 13.63C47.662 13.63 46.276 11.656 42.622 11.656C34.936 11.656 29.182 19.846 29.182 26.524C29.182 31.186 31.87 34.294 35.482 34.294C38.674 34.294 41.404 32.614 43.084 29.674C43.042 33.748 45.268 34.42 47.578 34.42C50.476 34.42 53.794 32.488 54.34 28.792H54.046C53.752 30.766 52.618 32.194 51.568 32.194C50.182 32.194 50.644 29.422 50.728 28.876L53.374 11.824ZM56.5132 12.37H59.6212L57.3112 27.322C56.3872 33.412 58.7392 34.42 61.4272 34.42C64.9132 34.42 67.8952 32.488 68.4412 28.792H68.1472C67.8532 30.766 66.7192 32.194 65.6692 32.194C64.2832 32.194 64.4092 30.01 64.5772 28.876L67.1812 12.37H71.6332L71.7172 11.95H67.2232L68.5672 3.55H68.1472C67.6852 6.028 67.2232 8.674 65.7532 10.27C63.9472 11.614 61.3852 11.908 58.4452 11.95H56.5972L56.5132 12.37ZM95.4318 11.95C92.9118 12.328 90.6018 12.496 88.0398 12.37L85.5618 28.12V28.162C83.7558 30.766 81.8658 32.74 80.3538 32.74C78.6318 32.74 78.7998 31.144 79.3458 27.574L81.1098 16.444C81.6138 13.252 80.4378 11.824 78.0858 11.824C75.1878 11.824 72.1638 13.378 70.0218 15.016L70.1478 15.226C70.9038 14.68 71.6598 14.26 72.2058 14.26C74.0958 14.26 73.5078 16.948 73.2978 18.334L71.7438 28.12C71.0718 32.278 72.8358 34.294 76.6578 34.294C80.6058 34.294 83.2938 32.026 85.4358 29.044C85.1418 32.572 86.7378 34.294 90.2658 34.294C97.8258 34.294 106.52 26.44 106.52 17.62C106.52 13.462 104.168 11.656 101.858 11.656C99.7158 11.656 97.6158 13.252 97.6158 15.856C97.6158 17.452 98.5398 18.628 100.514 18.754C100.976 17.662 102.152 17.284 103.286 17.284C104.798 17.284 105.68 18.25 105.68 19.888C105.68 25.642 97.9938 32.74 94.2138 32.74C92.4078 32.74 92.4078 31.144 92.9538 27.574L95.4318 11.95ZM117.61 32.194C115.636 32.194 115.132 30.052 115.132 27.742C115.132 20.77 117.82 11.992 121.39 11.992C123.742 11.992 123.7 13.336 123.154 16.738L121.348 28.162C121.096 29.716 119.164 32.194 117.61 32.194ZM131.386 11.824C130.42 13.084 129.454 13.63 128.152 13.63C125.674 13.63 124.288 11.656 120.634 11.656C112.948 11.656 107.194 19.846 107.194 26.524C107.194 31.186 109.882 34.294 113.494 34.294C116.686 34.294 119.416 32.614 121.096 29.674C121.054 33.748 123.28 34.42 125.59 34.42C128.488 34.42 131.806 32.488 132.352 28.792H132.058C131.764 30.766 130.63 32.194 129.58 32.194C128.194 32.194 128.656 29.422 128.74 28.876L131.386 11.824ZM146.369 5.398C146.915 2.164 145.571 0.778 143.219 0.778C140.321 0.778 137.297 2.332 135.155 3.97L135.281 4.18C136.037 3.634 136.793 3.214 137.339 3.214C139.229 3.214 138.641 5.902 138.431 7.288L135.323 27.322C134.399 33.412 136.751 34.42 139.439 34.42C142.337 34.42 145.655 32.488 146.201 28.792H145.907C145.613 30.766 144.479 32.194 143.429 32.194C142.043 32.194 142.505 29.422 142.589 28.876L146.369 5.398ZM160.232 5.398C160.778 2.164 159.434 0.778 157.082 0.778C154.184 0.778 151.16 2.332 149.018 3.97L149.144 4.18C149.9 3.634 150.656 3.214 151.202 3.214C153.092 3.214 152.504 5.902 152.294 7.288L148.094 34.294C150.614 33.916 153.134 33.748 155.696 33.874L157.586 21.946C158.132 21.652 158.678 21.526 159.098 21.526C163.592 21.526 156.662 34.42 167.372 34.42C170.27 34.42 173.588 32.488 174.134 28.792H173.84C173.546 30.766 172.412 32.194 171.362 32.194C168.128 32.194 171.572 19.846 163.718 19.846C162.29 19.846 160.484 20.266 158.342 21.232L160.82 19.216C164.684 16.066 170.06 12.244 173.882 12.244L173.924 11.95H163.634L163.592 12.244C167.372 12.244 163.13 16.738 160.526 18.922L157.67 21.316L160.232 5.398Z" fill="black"/>
</svg>
