<svg width="24" height="24" viewBox="0 0 24 24" fill="none" xmlns="http://www.w3.org/2000/svg">
<path d="M22.6731 17.0089L20.2211 14.5559C19.96 14.2944 19.6499 14.0868 19.3085 13.9453C18.9671 13.8037 18.6012 13.7308 18.2316 13.7308C17.862 13.7308 17.4961 13.8037 17.1547 13.9453C16.8133 14.0868 16.5032 14.2944 16.2421 14.5559L15.7421 15.0559C13.2778 12.9912 11.0016 10.7119 8.94008 8.24494L9.44008 7.74494C9.96659 7.21689 10.2622 6.50163 10.2622 5.75594C10.2622 5.01026 9.96659 4.29499 9.44008 3.76694L6.98308 1.31694C6.44669 0.804506 5.73341 0.518555 4.99158 0.518555C4.24976 0.518555 3.53648 0.804506 3.00009 1.31694L1.66009 2.66294C1.01617 3.31149 0.615007 4.16185 0.523961 5.07122C0.432914 5.98059 0.657528 6.8936 1.16009 7.65694C5.15518 13.6768 10.314 18.8367 16.3331 22.8329C17.099 23.3309 18.0119 23.5527 18.921 23.4618C19.83 23.3709 20.6809 22.9727 21.3331 22.3329L22.6781 20.9869C22.9396 20.726 23.1471 20.4161 23.2886 20.0749C23.4302 19.7336 23.5031 19.3679 23.5031 18.9984C23.5031 18.629 23.4302 18.2632 23.2886 17.922C23.1471 17.5808 22.9396 17.2709 22.6781 17.0099L22.6731 17.0089Z" fill="white" fill-opacity="0.8"/>
</svg>
