<svg width="25" height="24" viewBox="0 0 25 24" fill="none" xmlns="http://www.w3.org/2000/svg">
<path d="M23.7791 21.8271L17.1304 15.1783C18.5816 13.2706 19.2541 10.8829 19.0117 8.49817C18.7692 6.11347 17.6301 3.90988 15.8247 2.3332C14.0192 0.756516 11.6823 -0.0755292 9.28668 0.00539442C6.89107 0.0863181 4.61562 1.07417 2.9207 2.76909C1.22578 4.46401 0.237929 6.73946 0.157006 9.13507C0.0760821 11.5307 0.908128 13.8676 2.48481 15.673C4.06149 17.4785 6.26508 18.6176 8.64978 18.86C11.0345 19.1024 13.4222 18.43 15.3299 16.9787L21.9787 23.6275C22.2194 23.8623 22.5425 23.9938 22.8789 23.9938C23.2152 23.9938 23.5383 23.8623 23.7791 23.6275C24.0176 23.3886 24.1516 23.0648 24.1516 22.7273C24.1516 22.3897 24.0176 22.0659 23.7791 21.8271ZM2.7667 9.48581C2.7667 8.12631 3.16984 6.79733 3.92514 5.66694C4.68044 4.53656 5.75398 3.65553 7.01 3.13527C8.26602 2.61501 9.6481 2.47888 10.9815 2.74411C12.3149 3.00933 13.5397 3.664 14.501 4.62531C15.4623 5.58663 16.117 6.81142 16.3822 8.1448C16.6474 9.47819 16.5113 10.8603 15.991 12.1163C15.4708 13.3723 14.5897 14.4459 13.4593 15.2012C12.329 15.9565 11 16.3596 9.64048 16.3596C7.8181 16.3574 6.07098 15.6325 4.78236 14.3439C3.49375 13.0553 2.76885 11.3082 2.7667 9.48581Z" fill="black"/>
</svg>
