<svg width="38" height="38" viewBox="0 0 38 38" fill="none" xmlns="http://www.w3.org/2000/svg">
<path d="M33.25 7.12012H4.75C2.12665 7.12012 0 9.24676 0 11.8701V26.1201C0 28.7435 2.12665 30.8701 4.75 30.8701H33.25C35.8734 30.8701 38 28.7435 38 26.1201V11.8701C38 9.24676 35.8734 7.12012 33.25 7.12012Z" fill="white"/>
<path d="M15.7599 15.5699L12.8899 22.4599H10.9999L9.60994 16.9999C9.59871 16.8706 9.55411 16.7464 9.48049 16.6395C9.40687 16.5326 9.30675 16.4466 9.18994 16.3899C8.63369 16.1206 8.04573 15.9224 7.43994 15.7999V15.5999H10.4399C10.6376 15.5999 10.8288 15.6704 10.9791 15.7987C11.1294 15.927 11.229 16.1047 11.2599 16.2999L12.0099 20.2999L13.8499 15.6099L15.7599 15.5699ZM23.0899 20.2099C23.0899 18.3899 20.5899 18.2899 20.6099 17.4799C20.6099 17.2299 20.8499 16.9699 21.3599 16.8999C21.9573 16.8442 22.5586 16.9513 23.0999 17.2099L23.4099 15.7499C22.8797 15.5477 22.3174 15.4426 21.7499 15.4399C19.9999 15.4399 18.7499 16.3799 18.7499 17.7199C18.7499 18.7199 19.6299 19.2699 20.2999 19.5999C20.9699 19.9299 21.2199 20.1499 21.2199 20.4599C21.2199 20.9199 20.6699 21.1299 20.1599 21.1299C19.5255 21.1426 18.8985 20.9911 18.3399 20.6899L17.9999 22.1999C18.6366 22.4508 19.3157 22.5764 19.9999 22.5699C21.8599 22.5699 23.0699 21.6499 23.0799 20.2099H23.0899ZM27.6999 22.4599H29.3399L27.9099 15.5699H26.4099C26.2483 15.5704 26.0905 15.6192 25.9569 15.7101C25.8232 15.801 25.7198 15.9298 25.6599 16.0799L22.9999 22.4599H24.8599L25.2299 21.4599H27.4999L27.6999 22.4599ZM25.6999 20.0199L26.6299 17.4299L27.1999 19.9999L25.6999 20.0199ZM18.2599 15.5699L16.7999 22.4599H15.0599L16.5199 15.5699H18.2599Z" fill="#31333E"/>
</svg>
